<mxfile host="Electron" modified="2024-07-16T18:53:28.779Z" agent="Mozilla/5.0 (Windows NT 10.0; Win64; x64) AppleWebKit/537.36 (KHTML, like Gecko) draw.io/22.1.16 Chrome/120.0.6099.109 Electron/28.1.0 Safari/537.36" version="22.1.16" etag="aKf2kNvrbyLZp7oZhZCv" type="device">
  <diagram name="Page-1" id="Page-1">
    <mxGraphModel dx="1098" dy="940" grid="1" gridSize="10" guides="1" tooltips="1" connect="1" arrows="1" fold="1" page="1" pageScale="1" pageWidth="1200" pageHeight="300" math="0" shadow="0">
      <root>
        <mxCell id="0" />
        <mxCell id="1" parent="0" />
        <UserObject label="" tags="Background" id="2">
          <mxCell style="vsdxID=11;fillColor=#ffffff;gradientColor=none;shape=stencil(nZBLDoAgDERP0z3SIyjew0SURgSD+Lu9kMZoXLhwN9O+tukAlrNpJg1SzDH4QW/URgNYgZTkjA4UkwJUgGXng+6DX1zLfmoymdXo17xh5zmRJ6Q42BWCfc2oJfdAr+Yv+AP9Cb7OJ3H/2JG1HNGz/84klThPVCc=);strokeColor=#000000;points=[[1,0.5,0],[0.5,0,0],[0.5,0.5,0],[0.5,0.5,0]];labelBackgroundColor=none;rounded=0;html=1;whiteSpace=wrap;" parent="1" vertex="1">
            <mxGeometry x="162" y="20" width="14" height="60" as="geometry" />
          </mxCell>
        </UserObject>
        <UserObject label="" tags="Background" id="3">
          <mxCell style="vsdxID=12;fillColor=#ffffff;gradientColor=none;shape=stencil(nZBLDoAgDERP0z3SIyjew0SURgSD+Lu9kMZoXLhwN9O+tukAlrNpJg1SzDH4QW/URgNYgZTkjA4UkwJUgGXng+6DX1zLfmoymdXo17xh5zmRJ6Q42BWCfc2oJfdAr+Yv+AP9Cb7OJ3H/2JG1HNGz/84klThPVCc=);strokeColor=#000000;points=[[1,0.5,0],[0.5,0,0],[0.5,0.5,0],[0.5,0.5,0]];labelBackgroundColor=none;rounded=0;html=1;whiteSpace=wrap;" parent="1" vertex="1">
            <mxGeometry x="177" y="20" width="14" height="60" as="geometry" />
          </mxCell>
        </UserObject>
        <UserObject label="" tags="Background" id="4">
          <mxCell style="vsdxID=13;fillColor=#ffffff;gradientColor=none;shape=stencil(nZBLDoAgDERP0z3SIyjew0SURgSD+Lu9kMZoXLhwN9O+tukAlrNpJg1SzDH4QW/URgNYgZTkjA4UkwJUgGXng+6DX1zLfmoymdXo17xh5zmRJ6Q42BWCfc2oJfdAr+Yv+AP9Cb7OJ3H/2JG1HNGz/84klThPVCc=);strokeColor=#000000;points=[[1,0.5,0],[0.5,0,0],[0.5,0.5,0],[0.5,0.5,0]];labelBackgroundColor=none;rounded=0;html=1;whiteSpace=wrap;" parent="1" vertex="1">
            <mxGeometry x="192" y="20" width="14" height="60" as="geometry" />
          </mxCell>
        </UserObject>
        <UserObject label="" tags="Background" id="5">
          <mxCell style="vsdxID=14;fillColor=#ffffff;gradientColor=none;shape=stencil(nZBLDoAgDERP0z3SIyjew0SURgSD+Lu9kMZoXLhwN9O+tukAlrNpJg1SzDH4QW/URgNYgZTkjA4UkwJUgGXng+6DX1zLfmoymdXo17xh5zmRJ6Q42BWCfc2oJfdAr+Yv+AP9Cb7OJ3H/2JG1HNGz/84klThPVCc=);strokeColor=#000000;points=[[1,0.5,0],[0.5,0,0],[0.5,0.5,0],[0.5,0.5,0]];labelBackgroundColor=none;rounded=0;html=1;whiteSpace=wrap;" parent="1" vertex="1">
            <mxGeometry x="206" y="20" width="14" height="60" as="geometry" />
          </mxCell>
        </UserObject>
        <UserObject label="" tags="Background" id="6">
          <mxCell style="vsdxID=16;fillColor=#ffffff;gradientColor=none;shape=stencil(nZBLDoAgDERP0z3SIyjew0SURgSD+Lu9kMZoXLhwN9O+tukAlrNpJg1SzDH4QW/URgNYgZTkjA4UkwJUgGXng+6DX1zLfmoymdXo17xh5zmRJ6Q42BWCfc2oJfdAr+Yv+AP9Cb7OJ3H/2JG1HNGz/84klThPVCc=);strokeColor=#000000;points=[[1,0.5,0],[0.5,0,0],[0.5,0.5,0],[0.5,0.5,0]];labelBackgroundColor=none;rounded=0;html=1;whiteSpace=wrap;" parent="1" vertex="1">
            <mxGeometry x="221" y="20" width="14" height="60" as="geometry" />
          </mxCell>
        </UserObject>
        <UserObject label="" tags="Background" id="7">
          <mxCell style="vsdxID=17;fillColor=#ffffff;gradientColor=none;shape=stencil(nZBLDoAgDERP0z3SIyjew0SURgSD+Lu9kMZoXLhwN9O+tukAlrNpJg1SzDH4QW/URgNYgZTkjA4UkwJUgGXng+6DX1zLfmoymdXo17xh5zmRJ6Q42BWCfc2oJfdAr+Yv+AP9Cb7OJ3H/2JG1HNGz/84klThPVCc=);strokeColor=#000000;points=[[1,0.5,0],[0.5,0,0],[0.5,0.5,0],[0.5,0.5,0]];labelBackgroundColor=none;rounded=0;html=1;whiteSpace=wrap;" parent="1" vertex="1">
            <mxGeometry x="236" y="20" width="14" height="60" as="geometry" />
          </mxCell>
        </UserObject>
        <UserObject label="" tags="Background" id="8">
          <mxCell style="vsdxID=19;fillColor=#ffffff;gradientColor=none;shape=stencil(nZBLDoAgDERP0z3SIyjew0SURgSD+Lu9kMZoXLhwN9O+tukAlrNpJg1SzDH4QW/URgNYgZTkjA4UkwJUgGXng+6DX1zLfmoymdXo17xh5zmRJ6Q42BWCfc2oJfdAr+Yv+AP9Cb7OJ3H/2JG1HNGz/84klThPVCc=);strokeColor=#000000;points=[[1,0.5,0],[0.5,0,0],[0.5,0.5,0],[0.5,0.5,0]];labelBackgroundColor=none;rounded=0;html=1;whiteSpace=wrap;" parent="1" vertex="1">
            <mxGeometry x="250" y="20" width="14" height="60" as="geometry" />
          </mxCell>
        </UserObject>
        <UserObject label="" tags="Background" id="9">
          <mxCell style="vsdxID=20;fillColor=#ffffff;gradientColor=none;shape=stencil(nZBLDoAgDERP0z3SIyjew0SURgSD+Lu9kMZoXLhwN9O+tukAlrNpJg1SzDH4QW/URgNYgZTkjA4UkwJUgGXng+6DX1zLfmoymdXo17xh5zmRJ6Q42BWCfc2oJfdAr+Yv+AP9Cb7OJ3H/2JG1HNGz/84klThPVCc=);strokeColor=#000000;points=[[1,0.5,0],[0.5,0,0],[0.5,0.5,0],[0.5,0.5,0]];labelBackgroundColor=none;rounded=0;html=1;whiteSpace=wrap;" parent="1" vertex="1">
            <mxGeometry x="265" y="20" width="14" height="60" as="geometry" />
          </mxCell>
        </UserObject>
        <UserObject label="" tags="Background" id="10">
          <mxCell style="vsdxID=24;fillColor=#ffffff;gradientColor=none;shape=stencil(nZBLDoAgDERP0z3SIyjew0SURgSD+Lu9kMZoXLhwN9O+tukAlrNpJg1SzDH4QW/URgNYgZTkjA4UkwJUgGXng+6DX1zLfmoymdXo17xh5zmRJ6Q42BWCfc2oJfdAr+Yv+AP9Cb7OJ3H/2JG1HNGz/84klThPVCc=);strokeColor=#000000;points=[[1,0.5,0],[0.5,0,0],[0.5,0.5,0],[0.5,0.5,0]];labelBackgroundColor=none;rounded=0;html=1;whiteSpace=wrap;" parent="1" vertex="1">
            <mxGeometry x="279" y="20" width="14" height="60" as="geometry" />
          </mxCell>
        </UserObject>
        <UserObject label="" tags="Background" id="11">
          <mxCell style="vsdxID=25;fillColor=#ffffff;gradientColor=none;shape=stencil(nZBLDoAgDERP0z3SIyjew0SURgSD+Lu9kMZoXLhwN9O+tukAlrNpJg1SzDH4QW/URgNYgZTkjA4UkwJUgGXng+6DX1zLfmoymdXo17xh5zmRJ6Q42BWCfc2oJfdAr+Yv+AP9Cb7OJ3H/2JG1HNGz/84klThPVCc=);strokeColor=#000000;points=[[1,0.5,0],[0.5,0,0],[0.5,0.5,0],[0.5,0.5,0]];labelBackgroundColor=none;rounded=0;html=1;whiteSpace=wrap;" parent="1" vertex="1">
            <mxGeometry x="294" y="20" width="14" height="60" as="geometry" />
          </mxCell>
        </UserObject>
        <UserObject label="" tags="Background" id="12">
          <mxCell style="vsdxID=27;fillColor=#ffffff;gradientColor=none;shape=stencil(nZBLDoAgDERP0z3SIyjew0SURgSD+Lu9kMZoXLhwN9O+tukAlrNpJg1SzDH4QW/URgNYgZTkjA4UkwJUgGXng+6DX1zLfmoymdXo17xh5zmRJ6Q42BWCfc2oJfdAr+Yv+AP9Cb7OJ3H/2JG1HNGz/84klThPVCc=);strokeColor=#000000;points=[[1,0.5,0],[0.5,0,0],[0.5,0.5,0],[0.5,0.5,0]];labelBackgroundColor=none;rounded=0;html=1;whiteSpace=wrap;" parent="1" vertex="1">
            <mxGeometry x="309" y="20" width="14" height="60" as="geometry" />
          </mxCell>
        </UserObject>
        <UserObject label="" tags="Background" id="13">
          <mxCell style="vsdxID=28;fillColor=#ffffff;gradientColor=none;shape=stencil(nZBLDoAgDERP0z3SIyjew0SURgSD+Lu9kMZoXLhwN9O+tukAlrNpJg1SzDH4QW/URgNYgZTkjA4UkwJUgGXng+6DX1zLfmoymdXo17xh5zmRJ6Q42BWCfc2oJfdAr+Yv+AP9Cb7OJ3H/2JG1HNGz/84klThPVCc=);strokeColor=#000000;points=[[1,0.5,0],[0.5,0,0],[0.5,0.5,0],[0.5,0.5,0]];labelBackgroundColor=none;rounded=0;html=1;whiteSpace=wrap;" parent="1" vertex="1">
            <mxGeometry x="323" y="20" width="14" height="60" as="geometry" />
          </mxCell>
        </UserObject>
        <UserObject label="" tags="Background" id="14">
          <mxCell style="vsdxID=30;fillColor=#ffffff;gradientColor=none;shape=stencil(nZBLDoAgDERP0z3SIyjew0SURgSD+Lu9kMZoXLhwN9O+tukAlrNpJg1SzDH4QW/URgNYgZTkjA4UkwJUgGXng+6DX1zLfmoymdXo17xh5zmRJ6Q42BWCfc2oJfdAr+Yv+AP9Cb7OJ3H/2JG1HNGz/84klThPVCc=);strokeColor=#000000;points=[[1,0.5,0],[0.5,0,0],[0.5,0.5,0],[0.5,0.5,0]];labelBackgroundColor=none;rounded=0;html=1;whiteSpace=wrap;" parent="1" vertex="1">
            <mxGeometry x="338" y="20" width="14" height="60" as="geometry" />
          </mxCell>
        </UserObject>
        <UserObject label="" tags="Background" id="15">
          <mxCell style="vsdxID=31;fillColor=#ffffff;gradientColor=none;shape=stencil(nZBLDoAgDERP0z3SIyjew0SURgSD+Lu9kMZoXLhwN9O+tukAlrNpJg1SzDH4QW/URgNYgZTkjA4UkwJUgGXng+6DX1zLfmoymdXo17xh5zmRJ6Q42BWCfc2oJfdAr+Yv+AP9Cb7OJ3H/2JG1HNGz/84klThPVCc=);strokeColor=#000000;points=[[1,0.5,0],[0.5,0,0],[0.5,0.5,0],[0.5,0.5,0]];labelBackgroundColor=none;rounded=0;html=1;whiteSpace=wrap;" parent="1" vertex="1">
            <mxGeometry x="353" y="20" width="14" height="60" as="geometry" />
          </mxCell>
        </UserObject>
        <UserObject label="" tags="Background" id="16">
          <mxCell style="vsdxID=33;fillColor=#ffffff;gradientColor=none;shape=stencil(nZBLDoAgDERP0z3SIyjew0SURgSD+Lu9kMZoXLhwN9O+tukAlrNpJg1SzDH4QW/URgNYgZTkjA4UkwJUgGXng+6DX1zLfmoymdXo17xh5zmRJ6Q42BWCfc2oJfdAr+Yv+AP9Cb7OJ3H/2JG1HNGz/84klThPVCc=);strokeColor=#000000;points=[[1,0.5,0],[0.5,0,0],[0.5,0.5,0],[0.5,0.5,0]];labelBackgroundColor=none;rounded=0;html=1;whiteSpace=wrap;" parent="1" vertex="1">
            <mxGeometry x="367" y="20" width="14" height="60" as="geometry" />
          </mxCell>
        </UserObject>
        <UserObject label="" tags="Background" id="17">
          <mxCell style="vsdxID=34;fillColor=#ffffff;gradientColor=none;shape=stencil(nZBLDoAgDERP0z3SIyjew0SURgSD+Lu9kMZoXLhwN9O+tukAlrNpJg1SzDH4QW/URgNYgZTkjA4UkwJUgGXng+6DX1zLfmoymdXo17xh5zmRJ6Q42BWCfc2oJfdAr+Yv+AP9Cb7OJ3H/2JG1HNGz/84klThPVCc=);strokeColor=#000000;points=[[1,0.5,0],[0.5,0,0],[0.5,0.5,0],[0.5,0.5,0]];labelBackgroundColor=none;rounded=0;html=1;whiteSpace=wrap;" parent="1" vertex="1">
            <mxGeometry x="382" y="20" width="14" height="60" as="geometry" />
          </mxCell>
        </UserObject>
        <UserObject label="" tags="Background" id="18">
          <mxCell style="vsdxID=36;fillColor=#ffffff;gradientColor=none;shape=stencil(nZBLDoAgDERP0z3SIyjew0SURgSD+Lu9kMZoXLhwN9O+tukAlrNpJg1SzDH4QW/URgNYgZTkjA4UkwJUgGXng+6DX1zLfmoymdXo17xh5zmRJ6Q42BWCfc2oJfdAr+Yv+AP9Cb7OJ3H/2JG1HNGz/84klThPVCc=);strokeColor=#000000;points=[[1,0.5,0],[0.5,0,0],[0.5,0.5,0],[0.5,0.5,0]];labelBackgroundColor=none;rounded=0;html=1;whiteSpace=wrap;" parent="1" vertex="1">
            <mxGeometry x="396" y="20" width="14" height="60" as="geometry" />
          </mxCell>
        </UserObject>
        <UserObject label="" tags="Background" id="19">
          <mxCell style="vsdxID=37;fillColor=#ffffff;gradientColor=none;shape=stencil(nZBLDoAgDERP0z3SIyjew0SURgSD+Lu9kMZoXLhwN9O+tukAlrNpJg1SzDH4QW/URgNYgZTkjA4UkwJUgGXng+6DX1zLfmoymdXo17xh5zmRJ6Q42BWCfc2oJfdAr+Yv+AP9Cb7OJ3H/2JG1HNGz/84klThPVCc=);strokeColor=#000000;points=[[1,0.5,0],[0.5,0,0],[0.5,0.5,0],[0.5,0.5,0]];labelBackgroundColor=none;rounded=0;html=1;whiteSpace=wrap;" parent="1" vertex="1">
            <mxGeometry x="411" y="20" width="14" height="60" as="geometry" />
          </mxCell>
        </UserObject>
        <UserObject label="" tags="Background" id="20">
          <mxCell style="vsdxID=39;fillColor=#ffffff;gradientColor=none;shape=stencil(nZBLDoAgDERP0z3SIyjew0SURgSD+Lu9kMZoXLhwN9O+tukAlrNpJg1SzDH4QW/URgNYgZTkjA4UkwJUgGXng+6DX1zLfmoymdXo17xh5zmRJ6Q42BWCfc2oJfdAr+Yv+AP9Cb7OJ3H/2JG1HNGz/84klThPVCc=);strokeColor=#000000;points=[[1,0.5,0],[0.5,0,0],[0.5,0.5,0],[0.5,0.5,0]];labelBackgroundColor=none;rounded=0;html=1;whiteSpace=wrap;" parent="1" vertex="1">
            <mxGeometry x="426" y="20" width="14" height="60" as="geometry" />
          </mxCell>
        </UserObject>
        <UserObject label="" tags="Background" id="21">
          <mxCell style="vsdxID=40;fillColor=#ffffff;gradientColor=none;shape=stencil(nZBLDoAgDERP0z3SIyjew0SURgSD+Lu9kMZoXLhwN9O+tukAlrNpJg1SzDH4QW/URgNYgZTkjA4UkwJUgGXng+6DX1zLfmoymdXo17xh5zmRJ6Q42BWCfc2oJfdAr+Yv+AP9Cb7OJ3H/2JG1HNGz/84klThPVCc=);strokeColor=#000000;points=[[1,0.5,0],[0.5,0,0],[0.5,0.5,0],[0.5,0.5,0]];labelBackgroundColor=none;rounded=0;html=1;whiteSpace=wrap;" parent="1" vertex="1">
            <mxGeometry x="440" y="20" width="14" height="60" as="geometry" />
          </mxCell>
        </UserObject>
        <UserObject label="" tags="Background" id="22">
          <mxCell style="vsdxID=42;fillColor=#ffffff;gradientColor=none;shape=stencil(nZBLDoAgDERP0z3SIyjew0SURgSD+Lu9kMZoXLhwN9O+tukAlrNpJg1SzDH4QW/URgNYgZTkjA4UkwJUgGXng+6DX1zLfmoymdXo17xh5zmRJ6Q42BWCfc2oJfdAr+Yv+AP9Cb7OJ3H/2JG1HNGz/84klThPVCc=);strokeColor=#000000;points=[[1,0.5,0],[0.5,0,0],[0.5,0.5,0],[0.5,0.5,0]];labelBackgroundColor=none;rounded=0;html=1;whiteSpace=wrap;" parent="1" vertex="1">
            <mxGeometry x="455" y="20" width="14" height="60" as="geometry" />
          </mxCell>
        </UserObject>
        <UserObject label="" tags="Background" id="23">
          <mxCell style="vsdxID=43;fillColor=#ffffff;gradientColor=none;shape=stencil(nZBLDoAgDERP0z3SIyjew0SURgSD+Lu9kMZoXLhwN9O+tukAlrNpJg1SzDH4QW/URgNYgZTkjA4UkwJUgGXng+6DX1zLfmoymdXo17xh5zmRJ6Q42BWCfc2oJfdAr+Yv+AP9Cb7OJ3H/2JG1HNGz/84klThPVCc=);strokeColor=#000000;points=[[1,0.5,0],[0.5,0,0],[0.5,0.5,0],[0.5,0.5,0]];labelBackgroundColor=none;rounded=0;html=1;whiteSpace=wrap;" parent="1" vertex="1">
            <mxGeometry x="470" y="20" width="14" height="60" as="geometry" />
          </mxCell>
        </UserObject>
        <UserObject label="" tags="Background" id="24">
          <mxCell style="vsdxID=45;fillColor=#ffffff;gradientColor=none;shape=stencil(nZBLDoAgDERP0z3SIyjew0SURgSD+Lu9kMZoXLhwN9O+tukAlrNpJg1SzDH4QW/URgNYgZTkjA4UkwJUgGXng+6DX1zLfmoymdXo17xh5zmRJ6Q42BWCfc2oJfdAr+Yv+AP9Cb7OJ3H/2JG1HNGz/84klThPVCc=);strokeColor=#000000;points=[[1,0.5,0],[0.5,0,0],[0.5,0.5,0],[0.5,0.5,0]];labelBackgroundColor=none;rounded=0;html=1;whiteSpace=wrap;" parent="1" vertex="1">
            <mxGeometry x="484" y="20" width="14" height="60" as="geometry" />
          </mxCell>
        </UserObject>
        <UserObject label="" tags="Background" id="25">
          <mxCell style="vsdxID=46;fillColor=#ffffff;gradientColor=none;shape=stencil(nZBLDoAgDERP0z3SIyjew0SURgSD+Lu9kMZoXLhwN9O+tukAlrNpJg1SzDH4QW/URgNYgZTkjA4UkwJUgGXng+6DX1zLfmoymdXo17xh5zmRJ6Q42BWCfc2oJfdAr+Yv+AP9Cb7OJ3H/2JG1HNGz/84klThPVCc=);strokeColor=#000000;points=[[1,0.5,0],[0.5,0,0],[0.5,0.5,0],[0.5,0.5,0]];labelBackgroundColor=none;rounded=0;html=1;whiteSpace=wrap;" parent="1" vertex="1">
            <mxGeometry x="499" y="20" width="14" height="60" as="geometry" />
          </mxCell>
        </UserObject>
        <UserObject label="" tags="Background" id="26">
          <mxCell style="vsdxID=48;fillColor=#ffffff;gradientColor=none;shape=stencil(nZBLDoAgDERP0z3SIyjew0SURgSD+Lu9kMZoXLhwN9O+tukAlrNpJg1SzDH4QW/URgNYgZTkjA4UkwJUgGXng+6DX1zLfmoymdXo17xh5zmRJ6Q42BWCfc2oJfdAr+Yv+AP9Cb7OJ3H/2JG1HNGz/84klThPVCc=);strokeColor=#000000;points=[[1,0.5,0],[0.5,0,0],[0.5,0.5,0],[0.5,0.5,0]];labelBackgroundColor=none;rounded=0;html=1;whiteSpace=wrap;" parent="1" vertex="1">
            <mxGeometry x="513" y="20" width="14" height="60" as="geometry" />
          </mxCell>
        </UserObject>
        <UserObject label="" tags="Background" id="27">
          <mxCell style="vsdxID=49;fillColor=#ffffff;gradientColor=none;shape=stencil(nZBLDoAgDERP0z3SIyjew0SURgSD+Lu9kMZoXLhwN9O+tukAlrNpJg1SzDH4QW/URgNYgZTkjA4UkwJUgGXng+6DX1zLfmoymdXo17xh5zmRJ6Q42BWCfc2oJfdAr+Yv+AP9Cb7OJ3H/2JG1HNGz/84klThPVCc=);strokeColor=#000000;points=[[1,0.5,0],[0.5,0,0],[0.5,0.5,0],[0.5,0.5,0]];labelBackgroundColor=none;rounded=0;html=1;whiteSpace=wrap;" parent="1" vertex="1">
            <mxGeometry x="528" y="20" width="14" height="60" as="geometry" />
          </mxCell>
        </UserObject>
        <UserObject label="" tags="Background" id="28">
          <mxCell style="vsdxID=51;fillColor=#ffffff;gradientColor=none;shape=stencil(nZBLDoAgDERP0z3SIyjew0SURgSD+Lu9kMZoXLhwN9O+tukAlrNpJg1SzDH4QW/URgNYgZTkjA4UkwJUgGXng+6DX1zLfmoymdXo17xh5zmRJ6Q42BWCfc2oJfdAr+Yv+AP9Cb7OJ3H/2JG1HNGz/84klThPVCc=);strokeColor=#000000;points=[[1,0.5,0],[0.5,0,0],[0.5,0.5,0],[0.5,0.5,0]];labelBackgroundColor=none;rounded=0;html=1;whiteSpace=wrap;" parent="1" vertex="1">
            <mxGeometry x="543" y="20" width="14" height="60" as="geometry" />
          </mxCell>
        </UserObject>
        <UserObject label="" tags="Background" id="29">
          <mxCell style="vsdxID=52;fillColor=#ffffff;gradientColor=none;shape=stencil(nZBLDoAgDERP0z3SIyjew0SURgSD+Lu9kMZoXLhwN9O+tukAlrNpJg1SzDH4QW/URgNYgZTkjA4UkwJUgGXng+6DX1zLfmoymdXo17xh5zmRJ6Q42BWCfc2oJfdAr+Yv+AP9Cb7OJ3H/2JG1HNGz/84klThPVCc=);strokeColor=#000000;points=[[1,0.5,0],[0.5,0,0],[0.5,0.5,0],[0.5,0.5,0]];labelBackgroundColor=none;rounded=0;html=1;whiteSpace=wrap;" parent="1" vertex="1">
            <mxGeometry x="557" y="20" width="14" height="60" as="geometry" />
          </mxCell>
        </UserObject>
        <UserObject label="" tags="Background" id="30">
          <mxCell style="vsdxID=54;fillColor=#ffffff;gradientColor=none;shape=stencil(nZBLDoAgDERP0z3SIyjew0SURgSD+Lu9kMZoXLhwN9O+tukAlrNpJg1SzDH4QW/URgNYgZTkjA4UkwJUgGXng+6DX1zLfmoymdXo17xh5zmRJ6Q42BWCfc2oJfdAr+Yv+AP9Cb7OJ3H/2JG1HNGz/84klThPVCc=);strokeColor=#000000;points=[[1,0.5,0],[0.5,0,0],[0.5,0.5,0],[0.5,0.5,0]];labelBackgroundColor=none;rounded=0;html=1;whiteSpace=wrap;" parent="1" vertex="1">
            <mxGeometry x="572" y="20" width="14" height="60" as="geometry" />
          </mxCell>
        </UserObject>
        <UserObject label="" tags="Background" id="31">
          <mxCell style="vsdxID=55;fillColor=#ffffff;gradientColor=none;shape=stencil(nZBLDoAgDERP0z3SIyjew0SURgSD+Lu9kMZoXLhwN9O+tukAlrNpJg1SzDH4QW/URgNYgZTkjA4UkwJUgGXng+6DX1zLfmoymdXo17xh5zmRJ6Q42BWCfc2oJfdAr+Yv+AP9Cb7OJ3H/2JG1HNGz/84klThPVCc=);strokeColor=#000000;points=[[1,0.5,0],[0.5,0,0],[0.5,0.5,0],[0.5,0.5,0]];labelBackgroundColor=none;rounded=0;html=1;whiteSpace=wrap;" parent="1" vertex="1">
            <mxGeometry x="587" y="20" width="14" height="60" as="geometry" />
          </mxCell>
        </UserObject>
        <UserObject label="" tags="Background" id="32">
          <mxCell style="vsdxID=57;fillColor=#ffffff;gradientColor=none;shape=stencil(nZBLDoAgDERP0z3SIyjew0SURgSD+Lu9kMZoXLhwN9O+tukAlrNpJg1SzDH4QW/URgNYgZTkjA4UkwJUgGXng+6DX1zLfmoymdXo17xh5zmRJ6Q42BWCfc2oJfdAr+Yv+AP9Cb7OJ3H/2JG1HNGz/84klThPVCc=);strokeColor=#000000;points=[[1,0.5,0],[0.5,0,0],[0.5,0.5,0],[0.5,0.5,0]];labelBackgroundColor=none;rounded=0;html=1;whiteSpace=wrap;" parent="1" vertex="1">
            <mxGeometry x="601" y="20" width="14" height="60" as="geometry" />
          </mxCell>
        </UserObject>
        <UserObject label="" tags="Background" id="33">
          <mxCell style="vsdxID=58;fillColor=#ffffff;gradientColor=none;shape=stencil(nZBLDoAgDERP0z3SIyjew0SURgSD+Lu9kMZoXLhwN9O+tukAlrNpJg1SzDH4QW/URgNYgZTkjA4UkwJUgGXng+6DX1zLfmoymdXo17xh5zmRJ6Q42BWCfc2oJfdAr+Yv+AP9Cb7OJ3H/2JG1HNGz/84klThPVCc=);strokeColor=#000000;points=[[1,0.5,0],[0.5,0,0],[0.5,0.5,0],[0.5,0.5,0]];labelBackgroundColor=none;rounded=0;html=1;whiteSpace=wrap;" parent="1" vertex="1">
            <mxGeometry x="616" y="20" width="14" height="60" as="geometry" />
          </mxCell>
        </UserObject>
        <UserObject label="" tags="Background" id="34">
          <mxCell style="vsdxID=86;fillColor=#ffffff;gradientColor=none;shape=stencil(nZBLDoAgDERP0z3SIyjew0SURgSD+Lu9kMZoXLhwN9O+tukAlrNpJg1SzDH4QW/URgNYgZTkjA4UkwJUgGXng+6DX1zLfmoymdXo17xh5zmRJ6Q42BWCfc2oJfdAr+Yv+AP9Cb7OJ3H/2JG1HNGz/84klThPVCc=);strokeColor=#000000;points=[[1,0.5,0],[0.5,0,0],[0.5,0.5,0],[0.5,0.5,0]];labelBackgroundColor=none;rounded=0;html=1;whiteSpace=wrap;" parent="1" vertex="1">
            <mxGeometry x="630" y="20" width="14" height="60" as="geometry" />
          </mxCell>
        </UserObject>
        <UserObject label="" tags="Background" id="35">
          <mxCell style="vsdxID=87;fillColor=#ffffff;gradientColor=none;shape=stencil(nZBLDoAgDERP0z3SIyjew0SURgSD+Lu9kMZoXLhwN9O+tukAlrNpJg1SzDH4QW/URgNYgZTkjA4UkwJUgGXng+6DX1zLfmoymdXo17xh5zmRJ6Q42BWCfc2oJfdAr+Yv+AP9Cb7OJ3H/2JG1HNGz/84klThPVCc=);strokeColor=#000000;points=[[1,0.5,0],[0.5,0,0],[0.5,0.5,0],[0.5,0.5,0]];labelBackgroundColor=none;rounded=0;html=1;whiteSpace=wrap;" parent="1" vertex="1">
            <mxGeometry x="645" y="20" width="14" height="60" as="geometry" />
          </mxCell>
        </UserObject>
        <UserObject label="" tags="Background" id="36">
          <mxCell style="vsdxID=89;fillColor=#ffffff;gradientColor=none;shape=stencil(nZBLDoAgDERP0z3SIyjew0SURgSD+Lu9kMZoXLhwN9O+tukAlrNpJg1SzDH4QW/URgNYgZTkjA4UkwJUgGXng+6DX1zLfmoymdXo17xh5zmRJ6Q42BWCfc2oJfdAr+Yv+AP9Cb7OJ3H/2JG1HNGz/84klThPVCc=);strokeColor=#000000;points=[[1,0.5,0],[0.5,0,0],[0.5,0.5,0],[0.5,0.5,0]];labelBackgroundColor=none;rounded=0;html=1;whiteSpace=wrap;" parent="1" vertex="1">
            <mxGeometry x="660" y="20" width="14" height="60" as="geometry" />
          </mxCell>
        </UserObject>
        <UserObject label="" tags="Background" id="37">
          <mxCell style="vsdxID=90;fillColor=#ffffff;gradientColor=none;shape=stencil(nZBLDoAgDERP0z3SIyjew0SURgSD+Lu9kMZoXLhwN9O+tukAlrNpJg1SzDH4QW/URgNYgZTkjA4UkwJUgGXng+6DX1zLfmoymdXo17xh5zmRJ6Q42BWCfc2oJfdAr+Yv+AP9Cb7OJ3H/2JG1HNGz/84klThPVCc=);strokeColor=#000000;points=[[1,0.5,0],[0.5,0,0],[0.5,0.5,0],[0.5,0.5,0]];labelBackgroundColor=none;rounded=0;html=1;whiteSpace=wrap;" parent="1" vertex="1">
            <mxGeometry x="674" y="20" width="14" height="60" as="geometry" />
          </mxCell>
        </UserObject>
        <UserObject label="" tags="Background" id="38">
          <mxCell style="vsdxID=92;fillColor=#ffffff;gradientColor=none;shape=stencil(nZBLDoAgDERP0z3SIyjew0SURgSD+Lu9kMZoXLhwN9O+tukAlrNpJg1SzDH4QW/URgNYgZTkjA4UkwJUgGXng+6DX1zLfmoymdXo17xh5zmRJ6Q42BWCfc2oJfdAr+Yv+AP9Cb7OJ3H/2JG1HNGz/84klThPVCc=);strokeColor=#000000;points=[[1,0.5,0],[0.5,0,0],[0.5,0.5,0],[0.5,0.5,0]];labelBackgroundColor=none;rounded=0;html=1;whiteSpace=wrap;" parent="1" vertex="1">
            <mxGeometry x="689" y="20" width="14" height="60" as="geometry" />
          </mxCell>
        </UserObject>
        <UserObject label="" tags="Background" id="39">
          <mxCell style="vsdxID=93;fillColor=#ffffff;gradientColor=none;shape=stencil(nZBLDoAgDERP0z3SIyjew0SURgSD+Lu9kMZoXLhwN9O+tukAlrNpJg1SzDH4QW/URgNYgZTkjA4UkwJUgGXng+6DX1zLfmoymdXo17xh5zmRJ6Q42BWCfc2oJfdAr+Yv+AP9Cb7OJ3H/2JG1HNGz/84klThPVCc=);strokeColor=#000000;points=[[1,0.5,0],[0.5,0,0],[0.5,0.5,0],[0.5,0.5,0]];labelBackgroundColor=none;rounded=0;html=1;whiteSpace=wrap;" parent="1" vertex="1">
            <mxGeometry x="704" y="20" width="14" height="60" as="geometry" />
          </mxCell>
        </UserObject>
        <UserObject label="" tags="Background" id="40">
          <mxCell style="vsdxID=95;fillColor=#ffffff;gradientColor=none;shape=stencil(nZBLDoAgDERP0z3SIyjew0SURgSD+Lu9kMZoXLhwN9O+tukAlrNpJg1SzDH4QW/URgNYgZTkjA4UkwJUgGXng+6DX1zLfmoymdXo17xh5zmRJ6Q42BWCfc2oJfdAr+Yv+AP9Cb7OJ3H/2JG1HNGz/84klThPVCc=);strokeColor=#000000;points=[[1,0.5,0],[0.5,0,0],[0.5,0.5,0],[0.5,0.5,0]];labelBackgroundColor=none;rounded=0;html=1;whiteSpace=wrap;" parent="1" vertex="1">
            <mxGeometry x="718" y="20" width="14" height="60" as="geometry" />
          </mxCell>
        </UserObject>
        <UserObject label="" tags="Background" id="41">
          <mxCell style="vsdxID=96;fillColor=#ffffff;gradientColor=none;shape=stencil(nZBLDoAgDERP0z3SIyjew0SURgSD+Lu9kMZoXLhwN9O+tukAlrNpJg1SzDH4QW/URgNYgZTkjA4UkwJUgGXng+6DX1zLfmoymdXo17xh5zmRJ6Q42BWCfc2oJfdAr+Yv+AP9Cb7OJ3H/2JG1HNGz/84klThPVCc=);strokeColor=#000000;points=[[1,0.5,0],[0.5,0,0],[0.5,0.5,0],[0.5,0.5,0]];labelBackgroundColor=none;rounded=0;html=1;whiteSpace=wrap;" parent="1" vertex="1">
            <mxGeometry x="733" y="20" width="14" height="60" as="geometry" />
          </mxCell>
        </UserObject>
        <UserObject label="" tags="Background" id="42">
          <mxCell style="vsdxID=98;fillColor=#ffffff;gradientColor=none;shape=stencil(nZBLDoAgDERP0z3SIyjew0SURgSD+Lu9kMZoXLhwN9O+tukAlrNpJg1SzDH4QW/URgNYgZTkjA4UkwJUgGXng+6DX1zLfmoymdXo17xh5zmRJ6Q42BWCfc2oJfdAr+Yv+AP9Cb7OJ3H/2JG1HNGz/84klThPVCc=);strokeColor=#000000;points=[[1,0.5,0],[0.5,0,0],[0.5,0.5,0],[0.5,0.5,0]];labelBackgroundColor=none;rounded=0;html=1;whiteSpace=wrap;" parent="1" vertex="1">
            <mxGeometry x="747" y="20" width="14" height="60" as="geometry" />
          </mxCell>
        </UserObject>
        <UserObject label="" tags="Background" id="43">
          <mxCell style="vsdxID=99;fillColor=#ffffff;gradientColor=none;shape=stencil(nZBLDoAgDERP0z3SIyjew0SURgSD+Lu9kMZoXLhwN9O+tukAlrNpJg1SzDH4QW/URgNYgZTkjA4UkwJUgGXng+6DX1zLfmoymdXo17xh5zmRJ6Q42BWCfc2oJfdAr+Yv+AP9Cb7OJ3H/2JG1HNGz/84klThPVCc=);strokeColor=#000000;points=[[1,0.5,0],[0.5,0,0],[0.5,0.5,0],[0.5,0.5,0]];labelBackgroundColor=none;rounded=0;html=1;whiteSpace=wrap;" parent="1" vertex="1">
            <mxGeometry x="762" y="20" width="14" height="60" as="geometry" />
          </mxCell>
        </UserObject>
        <UserObject label="" tags="Background" id="44">
          <mxCell style="vsdxID=101;fillColor=#ffffff;gradientColor=none;shape=stencil(nZBLDoAgDERP0z3SIyjew0SURgSD+Lu9kMZoXLhwN9O+tukAlrNpJg1SzDH4QW/URgNYgZTkjA4UkwJUgGXng+6DX1zLfmoymdXo17xh5zmRJ6Q42BWCfc2oJfdAr+Yv+AP9Cb7OJ3H/2JG1HNGz/84klThPVCc=);strokeColor=#000000;points=[[1,0.5,0],[0.5,0,0],[0.5,0.5,0],[0.5,0.5,0]];labelBackgroundColor=none;rounded=0;html=1;whiteSpace=wrap;" parent="1" vertex="1">
            <mxGeometry x="777" y="20" width="14" height="60" as="geometry" />
          </mxCell>
        </UserObject>
        <UserObject label="" tags="Background" id="45">
          <mxCell style="vsdxID=102;fillColor=#ffffff;gradientColor=none;shape=stencil(nZBLDoAgDERP0z3SIyjew0SURgSD+Lu9kMZoXLhwN9O+tukAlrNpJg1SzDH4QW/URgNYgZTkjA4UkwJUgGXng+6DX1zLfmoymdXo17xh5zmRJ6Q42BWCfc2oJfdAr+Yv+AP9Cb7OJ3H/2JG1HNGz/84klThPVCc=);strokeColor=#000000;points=[[1,0.5,0],[0.5,0,0],[0.5,0.5,0],[0.5,0.5,0]];labelBackgroundColor=none;rounded=0;html=1;whiteSpace=wrap;" parent="1" vertex="1">
            <mxGeometry x="791" y="20" width="14" height="60" as="geometry" />
          </mxCell>
        </UserObject>
        <UserObject label="" tags="Background" id="46">
          <mxCell style="vsdxID=104;fillColor=#ffffff;gradientColor=none;shape=stencil(nZBLDoAgDERP0z3SIyjew0SURgSD+Lu9kMZoXLhwN9O+tukAlrNpJg1SzDH4QW/URgNYgZTkjA4UkwJUgGXng+6DX1zLfmoymdXo17xh5zmRJ6Q42BWCfc2oJfdAr+Yv+AP9Cb7OJ3H/2JG1HNGz/84klThPVCc=);strokeColor=#000000;points=[[1,0.5,0],[0.5,0,0],[0.5,0.5,0],[0.5,0.5,0]];labelBackgroundColor=none;rounded=0;html=1;whiteSpace=wrap;" parent="1" vertex="1">
            <mxGeometry x="806" y="20" width="14" height="60" as="geometry" />
          </mxCell>
        </UserObject>
        <UserObject label="" tags="Background" id="47">
          <mxCell style="vsdxID=105;fillColor=#ffffff;gradientColor=none;shape=stencil(nZBLDoAgDERP0z3SIyjew0SURgSD+Lu9kMZoXLhwN9O+tukAlrNpJg1SzDH4QW/URgNYgZTkjA4UkwJUgGXng+6DX1zLfmoymdXo17xh5zmRJ6Q42BWCfc2oJfdAr+Yv+AP9Cb7OJ3H/2JG1HNGz/84klThPVCc=);strokeColor=#000000;points=[[1,0.5,0],[0.5,0,0],[0.5,0.5,0],[0.5,0.5,0]];labelBackgroundColor=none;rounded=0;html=1;whiteSpace=wrap;" parent="1" vertex="1">
            <mxGeometry x="821" y="20" width="14" height="60" as="geometry" />
          </mxCell>
        </UserObject>
        <UserObject label="" tags="Background" id="48">
          <mxCell style="vsdxID=107;fillColor=#ffffff;gradientColor=none;shape=stencil(nZBLDoAgDERP0z3SIyjew0SURgSD+Lu9kMZoXLhwN9O+tukAlrNpJg1SzDH4QW/URgNYgZTkjA4UkwJUgGXng+6DX1zLfmoymdXo17xh5zmRJ6Q42BWCfc2oJfdAr+Yv+AP9Cb7OJ3H/2JG1HNGz/84klThPVCc=);strokeColor=#000000;points=[[1,0.5,0],[0.5,0,0],[0.5,0.5,0],[0.5,0.5,0]];labelBackgroundColor=none;rounded=0;html=1;whiteSpace=wrap;" parent="1" vertex="1">
            <mxGeometry x="835" y="20" width="14" height="60" as="geometry" />
          </mxCell>
        </UserObject>
        <UserObject label="" tags="Background" id="49">
          <mxCell style="vsdxID=108;fillColor=#ffffff;gradientColor=none;shape=stencil(nZBLDoAgDERP0z3SIyjew0SURgSD+Lu9kMZoXLhwN9O+tukAlrNpJg1SzDH4QW/URgNYgZTkjA4UkwJUgGXng+6DX1zLfmoymdXo17xh5zmRJ6Q42BWCfc2oJfdAr+Yv+AP9Cb7OJ3H/2JG1HNGz/84klThPVCc=);strokeColor=#000000;points=[[1,0.5,0],[0.5,0,0],[0.5,0.5,0],[0.5,0.5,0]];labelBackgroundColor=none;rounded=0;html=1;whiteSpace=wrap;" parent="1" vertex="1">
            <mxGeometry x="850" y="20" width="14" height="60" as="geometry" />
          </mxCell>
        </UserObject>
        <UserObject label="" tags="Background" id="50">
          <mxCell style="vsdxID=111;fillColor=#ffffff;gradientColor=none;shape=stencil(nZBLDoAgDERP0z3SIyjew0SURgSD+Lu9kMZoXLhwN9O+tukAlrNpJg1SzDH4QW/URgNYgZTkjA4UkwJUgGXng+6DX1zLfmoymdXo17xh5zmRJ6Q42BWCfc2oJfdAr+Yv+AP9Cb7OJ3H/2JG1HNGz/84klThPVCc=);strokeColor=#000000;points=[[1,0.5,0],[0.5,0,0],[0.5,0.5,0],[0.5,0.5,0]];labelBackgroundColor=none;rounded=0;html=1;whiteSpace=wrap;" parent="1" vertex="1">
            <mxGeometry x="864" y="20" width="14" height="60" as="geometry" />
          </mxCell>
        </UserObject>
        <UserObject label="" tags="Background" id="51">
          <mxCell style="vsdxID=112;fillColor=#ffffff;gradientColor=none;shape=stencil(nZBLDoAgDERP0z3SIyjew0SURgSD+Lu9kMZoXLhwN9O+tukAlrNpJg1SzDH4QW/URgNYgZTkjA4UkwJUgGXng+6DX1zLfmoymdXo17xh5zmRJ6Q42BWCfc2oJfdAr+Yv+AP9Cb7OJ3H/2JG1HNGz/84klThPVCc=);strokeColor=#000000;points=[[1,0.5,0],[0.5,0,0],[0.5,0.5,0],[0.5,0.5,0]];labelBackgroundColor=none;rounded=0;html=1;whiteSpace=wrap;" parent="1" vertex="1">
            <mxGeometry x="879" y="20" width="14" height="60" as="geometry" />
          </mxCell>
        </UserObject>
        <UserObject label="" tags="Background" id="52">
          <mxCell style="vsdxID=114;fillColor=#ffffff;gradientColor=none;shape=stencil(nZBLDoAgDERP0z3SIyjew0SURgSD+Lu9kMZoXLhwN9O+tukAlrNpJg1SzDH4QW/URgNYgZTkjA4UkwJUgGXng+6DX1zLfmoymdXo17xh5zmRJ6Q42BWCfc2oJfdAr+Yv+AP9Cb7OJ3H/2JG1HNGz/84klThPVCc=);strokeColor=#000000;points=[[1,0.5,0],[0.5,0,0],[0.5,0.5,0],[0.5,0.5,0]];labelBackgroundColor=none;rounded=0;html=1;whiteSpace=wrap;" parent="1" vertex="1">
            <mxGeometry x="894" y="20" width="14" height="60" as="geometry" />
          </mxCell>
        </UserObject>
        <UserObject label="" tags="Background" id="53">
          <mxCell style="vsdxID=115;fillColor=#ffffff;gradientColor=none;shape=stencil(nZBLDoAgDERP0z3SIyjew0SURgSD+Lu9kMZoXLhwN9O+tukAlrNpJg1SzDH4QW/URgNYgZTkjA4UkwJUgGXng+6DX1zLfmoymdXo17xh5zmRJ6Q42BWCfc2oJfdAr+Yv+AP9Cb7OJ3H/2JG1HNGz/84klThPVCc=);strokeColor=#000000;points=[[1,0.5,0],[0.5,0,0],[0.5,0.5,0],[0.5,0.5,0]];labelBackgroundColor=none;rounded=0;html=1;whiteSpace=wrap;" parent="1" vertex="1">
            <mxGeometry x="908" y="20" width="14" height="60" as="geometry" />
          </mxCell>
        </UserObject>
        <UserObject label="" tags="Background" id="54">
          <mxCell style="vsdxID=117;fillColor=#ffffff;gradientColor=none;shape=stencil(nZBLDoAgDERP0z3SIyjew0SURgSD+Lu9kMZoXLhwN9O+tukAlrNpJg1SzDH4QW/URgNYgZTkjA4UkwJUgGXng+6DX1zLfmoymdXo17xh5zmRJ6Q42BWCfc2oJfdAr+Yv+AP9Cb7OJ3H/2JG1HNGz/84klThPVCc=);strokeColor=#000000;points=[[1,0.5,0],[0.5,0,0],[0.5,0.5,0],[0.5,0.5,0]];labelBackgroundColor=none;rounded=0;html=1;whiteSpace=wrap;" parent="1" vertex="1">
            <mxGeometry x="923" y="20" width="14" height="60" as="geometry" />
          </mxCell>
        </UserObject>
        <UserObject label="" tags="Background" id="55">
          <mxCell style="vsdxID=118;fillColor=#ffffff;gradientColor=none;shape=stencil(nZBLDoAgDERP0z3SIyjew0SURgSD+Lu9kMZoXLhwN9O+tukAlrNpJg1SzDH4QW/URgNYgZTkjA4UkwJUgGXng+6DX1zLfmoymdXo17xh5zmRJ6Q42BWCfc2oJfdAr+Yv+AP9Cb7OJ3H/2JG1HNGz/84klThPVCc=);strokeColor=#000000;points=[[1,0.5,0],[0.5,0,0],[0.5,0.5,0],[0.5,0.5,0]];labelBackgroundColor=none;rounded=0;html=1;whiteSpace=wrap;" parent="1" vertex="1">
            <mxGeometry x="938" y="20" width="14" height="60" as="geometry" />
          </mxCell>
        </UserObject>
        <UserObject label="" tags="Background" id="56">
          <mxCell style="vsdxID=120;fillColor=#ffffff;gradientColor=none;shape=stencil(nZBLDoAgDERP0z3SIyjew0SURgSD+Lu9kMZoXLhwN9O+tukAlrNpJg1SzDH4QW/URgNYgZTkjA4UkwJUgGXng+6DX1zLfmoymdXo17xh5zmRJ6Q42BWCfc2oJfdAr+Yv+AP9Cb7OJ3H/2JG1HNGz/84klThPVCc=);strokeColor=#000000;points=[[1,0.5,0],[0.5,0,0],[0.5,0.5,0],[0.5,0.5,0]];labelBackgroundColor=none;rounded=0;html=1;whiteSpace=wrap;" parent="1" vertex="1">
            <mxGeometry x="952" y="20" width="14" height="60" as="geometry" />
          </mxCell>
        </UserObject>
        <UserObject label="" tags="Background" id="57">
          <mxCell style="vsdxID=121;fillColor=#ffffff;gradientColor=none;shape=stencil(nZBLDoAgDERP0z3SIyjew0SURgSD+Lu9kMZoXLhwN9O+tukAlrNpJg1SzDH4QW/URgNYgZTkjA4UkwJUgGXng+6DX1zLfmoymdXo17xh5zmRJ6Q42BWCfc2oJfdAr+Yv+AP9Cb7OJ3H/2JG1HNGz/84klThPVCc=);strokeColor=#000000;points=[[1,0.5,0],[0.5,0,0],[0.5,0.5,0],[0.5,0.5,0]];labelBackgroundColor=none;rounded=0;html=1;whiteSpace=wrap;" parent="1" vertex="1">
            <mxGeometry x="967" y="20" width="14" height="60" as="geometry" />
          </mxCell>
        </UserObject>
        <UserObject label="" tags="Background" id="58">
          <mxCell style="vsdxID=123;fillColor=#ffffff;gradientColor=none;shape=stencil(nZBLDoAgDERP0z3SIyjew0SURgSD+Lu9kMZoXLhwN9O+tukAlrNpJg1SzDH4QW/URgNYgZTkjA4UkwJUgGXng+6DX1zLfmoymdXo17xh5zmRJ6Q42BWCfc2oJfdAr+Yv+AP9Cb7OJ3H/2JG1HNGz/84klThPVCc=);strokeColor=#000000;points=[[1,0.5,0],[0.5,0,0],[0.5,0.5,0],[0.5,0.5,0]];labelBackgroundColor=none;rounded=0;html=1;whiteSpace=wrap;" parent="1" vertex="1">
            <mxGeometry x="981" y="20" width="14" height="60" as="geometry" />
          </mxCell>
        </UserObject>
        <UserObject label="" tags="Background" id="59">
          <mxCell style="vsdxID=124;fillColor=#ffffff;gradientColor=none;shape=stencil(nZBLDoAgDERP0z3SIyjew0SURgSD+Lu9kMZoXLhwN9O+tukAlrNpJg1SzDH4QW/URgNYgZTkjA4UkwJUgGXng+6DX1zLfmoymdXo17xh5zmRJ6Q42BWCfc2oJfdAr+Yv+AP9Cb7OJ3H/2JG1HNGz/84klThPVCc=);strokeColor=#000000;points=[[1,0.5,0],[0.5,0,0],[0.5,0.5,0],[0.5,0.5,0]];labelBackgroundColor=none;rounded=0;html=1;whiteSpace=wrap;" parent="1" vertex="1">
            <mxGeometry x="996" y="20" width="14" height="60" as="geometry" />
          </mxCell>
        </UserObject>
        <UserObject label="" tags="Background" id="60">
          <mxCell style="vsdxID=126;fillColor=#ffffff;gradientColor=none;shape=stencil(nZBLDoAgDERP0z3SIyjew0SURgSD+Lu9kMZoXLhwN9O+tukAlrNpJg1SzDH4QW/URgNYgZTkjA4UkwJUgGXng+6DX1zLfmoymdXo17xh5zmRJ6Q42BWCfc2oJfdAr+Yv+AP9Cb7OJ3H/2JG1HNGz/84klThPVCc=);strokeColor=#000000;points=[[1,0.5,0],[0.5,0,0],[0.5,0.5,0],[0.5,0.5,0]];labelBackgroundColor=none;rounded=0;html=1;whiteSpace=wrap;" parent="1" vertex="1">
            <mxGeometry x="1011" y="20" width="14" height="60" as="geometry" />
          </mxCell>
        </UserObject>
        <UserObject label="" tags="Background" id="61">
          <mxCell style="vsdxID=127;fillColor=#ffffff;gradientColor=none;shape=stencil(nZBLDoAgDERP0z3SIyjew0SURgSD+Lu9kMZoXLhwN9O+tukAlrNpJg1SzDH4QW/URgNYgZTkjA4UkwJUgGXng+6DX1zLfmoymdXo17xh5zmRJ6Q42BWCfc2oJfdAr+Yv+AP9Cb7OJ3H/2JG1HNGz/84klThPVCc=);strokeColor=#000000;points=[[1,0.5,0],[0.5,0,0],[0.5,0.5,0],[0.5,0.5,0]];labelBackgroundColor=none;rounded=0;html=1;whiteSpace=wrap;" parent="1" vertex="1">
            <mxGeometry x="1025" y="20" width="14" height="60" as="geometry" />
          </mxCell>
        </UserObject>
        <UserObject label="" tags="Background" id="62">
          <mxCell style="vsdxID=129;fillColor=#ffffff;gradientColor=none;shape=stencil(nZBLDoAgDERP0z3SIyjew0SURgSD+Lu9kMZoXLhwN9O+tukAlrNpJg1SzDH4QW/URgNYgZTkjA4UkwJUgGXng+6DX1zLfmoymdXo17xh5zmRJ6Q42BWCfc2oJfdAr+Yv+AP9Cb7OJ3H/2JG1HNGz/84klThPVCc=);strokeColor=#000000;points=[[1,0.5,0],[0.5,0,0],[0.5,0.5,0],[0.5,0.5,0]];labelBackgroundColor=none;rounded=0;html=1;whiteSpace=wrap;" parent="1" vertex="1">
            <mxGeometry x="1040" y="20" width="14" height="60" as="geometry" />
          </mxCell>
        </UserObject>
        <UserObject label="" tags="Background" id="63">
          <mxCell style="vsdxID=130;fillColor=#ffffff;gradientColor=none;shape=stencil(nZBLDoAgDERP0z3SIyjew0SURgSD+Lu9kMZoXLhwN9O+tukAlrNpJg1SzDH4QW/URgNYgZTkjA4UkwJUgGXng+6DX1zLfmoymdXo17xh5zmRJ6Q42BWCfc2oJfdAr+Yv+AP9Cb7OJ3H/2JG1HNGz/84klThPVCc=);strokeColor=#000000;points=[[1,0.5,0],[0.5,0,0],[0.5,0.5,0],[0.5,0.5,0]];labelBackgroundColor=none;rounded=0;html=1;whiteSpace=wrap;" parent="1" vertex="1">
            <mxGeometry x="1055" y="20" width="14" height="60" as="geometry" />
          </mxCell>
        </UserObject>
        <UserObject label="" tags="Background" id="64">
          <mxCell style="vsdxID=132;fillColor=#ffffff;gradientColor=none;shape=stencil(nZBLDoAgDERP0z3SIyjew0SURgSD+Lu9kMZoXLhwN9O+tukAlrNpJg1SzDH4QW/URgNYgZTkjA4UkwJUgGXng+6DX1zLfmoymdXo17xh5zmRJ6Q42BWCfc2oJfdAr+Yv+AP9Cb7OJ3H/2JG1HNGz/84klThPVCc=);strokeColor=#000000;points=[[1,0.5,0],[0.5,0,0],[0.5,0.5,0],[0.5,0.5,0]];labelBackgroundColor=none;rounded=0;html=1;whiteSpace=wrap;" parent="1" vertex="1">
            <mxGeometry x="1069" y="20" width="14" height="60" as="geometry" />
          </mxCell>
        </UserObject>
        <UserObject label="" tags="Background" id="65">
          <mxCell style="vsdxID=133;fillColor=#ffffff;gradientColor=none;shape=stencil(nZBLDoAgDERP0z3SIyjew0SURgSD+Lu9kMZoXLhwN9O+tukAlrNpJg1SzDH4QW/URgNYgZTkjA4UkwJUgGXng+6DX1zLfmoymdXo17xh5zmRJ6Q42BWCfc2oJfdAr+Yv+AP9Cb7OJ3H/2JG1HNGz/84klThPVCc=);strokeColor=#000000;points=[[1,0.5,0],[0.5,0,0],[0.5,0.5,0],[0.5,0.5,0]];labelBackgroundColor=none;rounded=0;html=1;whiteSpace=wrap;" parent="1" vertex="1">
            <mxGeometry x="1084" y="20" width="14" height="60" as="geometry" />
          </mxCell>
        </UserObject>
        <UserObject label="" tags="Background" id="66">
          <mxCell style="vsdxID=135;fillColor=#e1d5e7;shape=stencil(nZBLDoAgDERP0z3SIyjew0SURgSD+Lu9kMZoXLhwN9O+tukAlrNpJg1SzDH4QW/URgNYgZTkjA4UkwJUgGXng+6DX1zLfmoymdXo17xh5zmRJ6Q42BWCfc2oJfdAr+Yv+AP9Cb7OJ3H/2JG1HNGz/84klThPVCc=);strokeColor=#9673a6;points=[[1,0.5,0],[0.5,0,0],[0.5,0.5,0],[0.5,0.5,0]];labelBackgroundColor=none;rounded=0;html=1;whiteSpace=wrap;" parent="1" vertex="1">
            <mxGeometry x="162" y="120" width="14" height="60" as="geometry" />
          </mxCell>
        </UserObject>
        <UserObject label="" tags="Background" id="67">
          <mxCell style="vsdxID=136;fillColor=#e1d5e7;shape=stencil(nZBLDoAgDERP0z3SIyjew0SURgSD+Lu9kMZoXLhwN9O+tukAlrNpJg1SzDH4QW/URgNYgZTkjA4UkwJUgGXng+6DX1zLfmoymdXo17xh5zmRJ6Q42BWCfc2oJfdAr+Yv+AP9Cb7OJ3H/2JG1HNGz/84klThPVCc=);strokeColor=#9673a6;points=[[1,0.5,0],[0.5,0,0],[0.5,0.5,0],[0.5,0.5,0]];labelBackgroundColor=none;rounded=0;html=1;whiteSpace=wrap;" parent="1" vertex="1">
            <mxGeometry x="177" y="120" width="14" height="60" as="geometry" />
          </mxCell>
        </UserObject>
        <UserObject label="" tags="Background" id="68">
          <mxCell style="vsdxID=137;fillColor=#e1d5e7;shape=stencil(nZBLDoAgDERP0z3SIyjew0SURgSD+Lu9kMZoXLhwN9O+tukAlrNpJg1SzDH4QW/URgNYgZTkjA4UkwJUgGXng+6DX1zLfmoymdXo17xh5zmRJ6Q42BWCfc2oJfdAr+Yv+AP9Cb7OJ3H/2JG1HNGz/84klThPVCc=);strokeColor=#9673a6;points=[[1,0.5,0],[0.5,0,0],[0.5,0.5,0],[0.5,0.5,0]];labelBackgroundColor=none;rounded=0;html=1;whiteSpace=wrap;" parent="1" vertex="1">
            <mxGeometry x="192" y="120" width="14" height="60" as="geometry" />
          </mxCell>
        </UserObject>
        <UserObject label="" tags="Background" id="69">
          <mxCell style="vsdxID=138;fillColor=#e1d5e7;shape=stencil(nZBLDoAgDERP0z3SIyjew0SURgSD+Lu9kMZoXLhwN9O+tukAlrNpJg1SzDH4QW/URgNYgZTkjA4UkwJUgGXng+6DX1zLfmoymdXo17xh5zmRJ6Q42BWCfc2oJfdAr+Yv+AP9Cb7OJ3H/2JG1HNGz/84klThPVCc=);strokeColor=#9673a6;points=[[1,0.5,0],[0.5,0,0],[0.5,0.5,0],[0.5,0.5,0]];labelBackgroundColor=none;rounded=0;html=1;whiteSpace=wrap;" parent="1" vertex="1">
            <mxGeometry x="206" y="120" width="14" height="60" as="geometry" />
          </mxCell>
        </UserObject>
        <UserObject label="" tags="Background" id="70">
          <mxCell style="vsdxID=139;fillColor=#e1d5e7;shape=stencil(nZBLDoAgDERP0z3SIyjew0SURgSD+Lu9kMZoXLhwN9O+tukAlrNpJg1SzDH4QW/URgNYgZTkjA4UkwJUgGXng+6DX1zLfmoymdXo17xh5zmRJ6Q42BWCfc2oJfdAr+Yv+AP9Cb7OJ3H/2JG1HNGz/84klThPVCc=);strokeColor=#9673a6;points=[[1,0.5,0],[0.5,0,0],[0.5,0.5,0],[0.5,0.5,0]];labelBackgroundColor=none;rounded=0;html=1;whiteSpace=wrap;" parent="1" vertex="1">
            <mxGeometry x="221" y="120" width="14" height="60" as="geometry" />
          </mxCell>
        </UserObject>
        <UserObject label="" tags="Background" id="71">
          <mxCell style="vsdxID=140;fillColor=#e1d5e7;shape=stencil(nZBLDoAgDERP0z3SIyjew0SURgSD+Lu9kMZoXLhwN9O+tukAlrNpJg1SzDH4QW/URgNYgZTkjA4UkwJUgGXng+6DX1zLfmoymdXo17xh5zmRJ6Q42BWCfc2oJfdAr+Yv+AP9Cb7OJ3H/2JG1HNGz/84klThPVCc=);strokeColor=#9673a6;points=[[1,0.5,0],[0.5,0,0],[0.5,0.5,0],[0.5,0.5,0]];labelBackgroundColor=none;rounded=0;html=1;whiteSpace=wrap;" parent="1" vertex="1">
            <mxGeometry x="236" y="120" width="14" height="60" as="geometry" />
          </mxCell>
        </UserObject>
        <UserObject label="" tags="Background" id="72">
          <mxCell style="vsdxID=141;fillColor=#e1d5e7;shape=stencil(nZBLDoAgDERP0z3SIyjew0SURgSD+Lu9kMZoXLhwN9O+tukAlrNpJg1SzDH4QW/URgNYgZTkjA4UkwJUgGXng+6DX1zLfmoymdXo17xh5zmRJ6Q42BWCfc2oJfdAr+Yv+AP9Cb7OJ3H/2JG1HNGz/84klThPVCc=);strokeColor=#9673a6;points=[[1,0.5,0],[0.5,0,0],[0.5,0.5,0],[0.5,0.5,0]];labelBackgroundColor=none;rounded=0;html=1;whiteSpace=wrap;" parent="1" vertex="1">
            <mxGeometry x="250" y="120" width="14" height="60" as="geometry" />
          </mxCell>
        </UserObject>
        <UserObject label="" tags="Background" id="73">
          <mxCell style="vsdxID=142;fillColor=#e1d5e7;shape=stencil(nZBLDoAgDERP0z3SIyjew0SURgSD+Lu9kMZoXLhwN9O+tukAlrNpJg1SzDH4QW/URgNYgZTkjA4UkwJUgGXng+6DX1zLfmoymdXo17xh5zmRJ6Q42BWCfc2oJfdAr+Yv+AP9Cb7OJ3H/2JG1HNGz/84klThPVCc=);strokeColor=#9673a6;points=[[1,0.5,0],[0.5,0,0],[0.5,0.5,0],[0.5,0.5,0]];labelBackgroundColor=none;rounded=0;html=1;whiteSpace=wrap;" parent="1" vertex="1">
            <mxGeometry x="265" y="120" width="14" height="60" as="geometry" />
          </mxCell>
        </UserObject>
        <UserObject label="" tags="Background" id="74">
          <mxCell style="vsdxID=143;fillColor=#e1d5e7;shape=stencil(nZBLDoAgDERP0z3SIyjew0SURgSD+Lu9kMZoXLhwN9O+tukAlrNpJg1SzDH4QW/URgNYgZTkjA4UkwJUgGXng+6DX1zLfmoymdXo17xh5zmRJ6Q42BWCfc2oJfdAr+Yv+AP9Cb7OJ3H/2JG1HNGz/84klThPVCc=);strokeColor=#9673a6;points=[[1,0.5,0],[0.5,0,0],[0.5,0.5,0],[0.5,0.5,0]];labelBackgroundColor=none;rounded=0;html=1;whiteSpace=wrap;" parent="1" vertex="1">
            <mxGeometry x="279" y="120" width="14" height="60" as="geometry" />
          </mxCell>
        </UserObject>
        <UserObject label="" tags="Background" id="75">
          <mxCell style="vsdxID=144;fillColor=#e1d5e7;shape=stencil(nZBLDoAgDERP0z3SIyjew0SURgSD+Lu9kMZoXLhwN9O+tukAlrNpJg1SzDH4QW/URgNYgZTkjA4UkwJUgGXng+6DX1zLfmoymdXo17xh5zmRJ6Q42BWCfc2oJfdAr+Yv+AP9Cb7OJ3H/2JG1HNGz/84klThPVCc=);strokeColor=#9673a6;points=[[1,0.5,0],[0.5,0,0],[0.5,0.5,0],[0.5,0.5,0]];labelBackgroundColor=none;rounded=0;html=1;whiteSpace=wrap;" parent="1" vertex="1">
            <mxGeometry x="294" y="120" width="14" height="60" as="geometry" />
          </mxCell>
        </UserObject>
        <UserObject label="" tags="Background" id="76">
          <mxCell style="vsdxID=145;fillColor=#e1d5e7;shape=stencil(nZBLDoAgDERP0z3SIyjew0SURgSD+Lu9kMZoXLhwN9O+tukAlrNpJg1SzDH4QW/URgNYgZTkjA4UkwJUgGXng+6DX1zLfmoymdXo17xh5zmRJ6Q42BWCfc2oJfdAr+Yv+AP9Cb7OJ3H/2JG1HNGz/84klThPVCc=);strokeColor=#9673a6;points=[[1,0.5,0],[0.5,0,0],[0.5,0.5,0],[0.5,0.5,0]];labelBackgroundColor=none;rounded=0;html=1;whiteSpace=wrap;" parent="1" vertex="1">
            <mxGeometry x="309" y="120" width="14" height="60" as="geometry" />
          </mxCell>
        </UserObject>
        <UserObject label="" tags="Background" id="77">
          <mxCell style="vsdxID=146;fillColor=#e1d5e7;shape=stencil(nZBLDoAgDERP0z3SIyjew0SURgSD+Lu9kMZoXLhwN9O+tukAlrNpJg1SzDH4QW/URgNYgZTkjA4UkwJUgGXng+6DX1zLfmoymdXo17xh5zmRJ6Q42BWCfc2oJfdAr+Yv+AP9Cb7OJ3H/2JG1HNGz/84klThPVCc=);strokeColor=#9673a6;points=[[1,0.5,0],[0.5,0,0],[0.5,0.5,0],[0.5,0.5,0]];labelBackgroundColor=none;rounded=0;html=1;whiteSpace=wrap;" parent="1" vertex="1">
            <mxGeometry x="323" y="120" width="14" height="60" as="geometry" />
          </mxCell>
        </UserObject>
        <UserObject label="" tags="Background" id="78">
          <mxCell style="vsdxID=147;fillColor=#e1d5e7;shape=stencil(nZBLDoAgDERP0z3SIyjew0SURgSD+Lu9kMZoXLhwN9O+tukAlrNpJg1SzDH4QW/URgNYgZTkjA4UkwJUgGXng+6DX1zLfmoymdXo17xh5zmRJ6Q42BWCfc2oJfdAr+Yv+AP9Cb7OJ3H/2JG1HNGz/84klThPVCc=);strokeColor=#9673a6;points=[[1,0.5,0],[0.5,0,0],[0.5,0.5,0],[0.5,0.5,0]];labelBackgroundColor=none;rounded=0;html=1;whiteSpace=wrap;" parent="1" vertex="1">
            <mxGeometry x="338" y="120" width="14" height="60" as="geometry" />
          </mxCell>
        </UserObject>
        <UserObject label="" tags="Background" id="79">
          <mxCell style="vsdxID=148;fillColor=#e1d5e7;shape=stencil(nZBLDoAgDERP0z3SIyjew0SURgSD+Lu9kMZoXLhwN9O+tukAlrNpJg1SzDH4QW/URgNYgZTkjA4UkwJUgGXng+6DX1zLfmoymdXo17xh5zmRJ6Q42BWCfc2oJfdAr+Yv+AP9Cb7OJ3H/2JG1HNGz/84klThPVCc=);strokeColor=#9673a6;points=[[1,0.5,0],[0.5,0,0],[0.5,0.5,0],[0.5,0.5,0]];labelBackgroundColor=none;rounded=0;html=1;whiteSpace=wrap;" parent="1" vertex="1">
            <mxGeometry x="353" y="120" width="14" height="60" as="geometry" />
          </mxCell>
        </UserObject>
        <UserObject label="" tags="Background" id="80">
          <mxCell style="vsdxID=149;fillColor=#e1d5e7;shape=stencil(nZBLDoAgDERP0z3SIyjew0SURgSD+Lu9kMZoXLhwN9O+tukAlrNpJg1SzDH4QW/URgNYgZTkjA4UkwJUgGXng+6DX1zLfmoymdXo17xh5zmRJ6Q42BWCfc2oJfdAr+Yv+AP9Cb7OJ3H/2JG1HNGz/84klThPVCc=);strokeColor=#9673a6;points=[[1,0.5,0],[0.5,0,0],[0.5,0.5,0],[0.5,0.5,0]];labelBackgroundColor=none;rounded=0;html=1;whiteSpace=wrap;" parent="1" vertex="1">
            <mxGeometry x="367" y="120" width="14" height="60" as="geometry" />
          </mxCell>
        </UserObject>
        <UserObject label="" tags="Background" id="81">
          <mxCell style="vsdxID=150;fillColor=#e1d5e7;shape=stencil(nZBLDoAgDERP0z3SIyjew0SURgSD+Lu9kMZoXLhwN9O+tukAlrNpJg1SzDH4QW/URgNYgZTkjA4UkwJUgGXng+6DX1zLfmoymdXo17xh5zmRJ6Q42BWCfc2oJfdAr+Yv+AP9Cb7OJ3H/2JG1HNGz/84klThPVCc=);strokeColor=#9673a6;points=[[1,0.5,0],[0.5,0,0],[0.5,0.5,0],[0.5,0.5,0]];labelBackgroundColor=none;rounded=0;html=1;whiteSpace=wrap;" parent="1" vertex="1">
            <mxGeometry x="382" y="120" width="14" height="60" as="geometry" />
          </mxCell>
        </UserObject>
        <UserObject label="" tags="Background" id="82">
          <mxCell style="vsdxID=151;fillColor=#e1d5e7;shape=stencil(nZBLDoAgDERP0z3SIyjew0SURgSD+Lu9kMZoXLhwN9O+tukAlrNpJg1SzDH4QW/URgNYgZTkjA4UkwJUgGXng+6DX1zLfmoymdXo17xh5zmRJ6Q42BWCfc2oJfdAr+Yv+AP9Cb7OJ3H/2JG1HNGz/84klThPVCc=);strokeColor=#9673a6;points=[[1,0.5,0],[0.5,0,0],[0.5,0.5,0],[0.5,0.5,0]];labelBackgroundColor=none;rounded=0;html=1;whiteSpace=wrap;" parent="1" vertex="1">
            <mxGeometry x="396" y="120" width="14" height="60" as="geometry" />
          </mxCell>
        </UserObject>
        <UserObject label="" tags="Background" id="83">
          <mxCell style="vsdxID=152;fillColor=#e1d5e7;shape=stencil(nZBLDoAgDERP0z3SIyjew0SURgSD+Lu9kMZoXLhwN9O+tukAlrNpJg1SzDH4QW/URgNYgZTkjA4UkwJUgGXng+6DX1zLfmoymdXo17xh5zmRJ6Q42BWCfc2oJfdAr+Yv+AP9Cb7OJ3H/2JG1HNGz/84klThPVCc=);strokeColor=#9673a6;points=[[1,0.5,0],[0.5,0,0],[0.5,0.5,0],[0.5,0.5,0]];labelBackgroundColor=none;rounded=0;html=1;whiteSpace=wrap;" parent="1" vertex="1">
            <mxGeometry x="411" y="120" width="14" height="60" as="geometry" />
          </mxCell>
        </UserObject>
        <UserObject label="" tags="Background" id="84">
          <mxCell style="vsdxID=153;fillColor=#e1d5e7;shape=stencil(nZBLDoAgDERP0z3SIyjew0SURgSD+Lu9kMZoXLhwN9O+tukAlrNpJg1SzDH4QW/URgNYgZTkjA4UkwJUgGXng+6DX1zLfmoymdXo17xh5zmRJ6Q42BWCfc2oJfdAr+Yv+AP9Cb7OJ3H/2JG1HNGz/84klThPVCc=);strokeColor=#9673a6;points=[[1,0.5,0],[0.5,0,0],[0.5,0.5,0],[0.5,0.5,0]];labelBackgroundColor=none;rounded=0;html=1;whiteSpace=wrap;" parent="1" vertex="1">
            <mxGeometry x="426" y="120" width="14" height="60" as="geometry" />
          </mxCell>
        </UserObject>
        <UserObject label="" tags="Background" id="85">
          <mxCell style="vsdxID=154;fillColor=#e1d5e7;shape=stencil(nZBLDoAgDERP0z3SIyjew0SURgSD+Lu9kMZoXLhwN9O+tukAlrNpJg1SzDH4QW/URgNYgZTkjA4UkwJUgGXng+6DX1zLfmoymdXo17xh5zmRJ6Q42BWCfc2oJfdAr+Yv+AP9Cb7OJ3H/2JG1HNGz/84klThPVCc=);strokeColor=#9673a6;points=[[1,0.5,0],[0.5,0,0],[0.5,0.5,0],[0.5,0.5,0]];labelBackgroundColor=none;rounded=0;html=1;whiteSpace=wrap;" parent="1" vertex="1">
            <mxGeometry x="440" y="120" width="14" height="60" as="geometry" />
          </mxCell>
        </UserObject>
        <UserObject label="" tags="Background" id="86">
          <mxCell style="vsdxID=155;fillColor=#e1d5e7;shape=stencil(nZBLDoAgDERP0z3SIyjew0SURgSD+Lu9kMZoXLhwN9O+tukAlrNpJg1SzDH4QW/URgNYgZTkjA4UkwJUgGXng+6DX1zLfmoymdXo17xh5zmRJ6Q42BWCfc2oJfdAr+Yv+AP9Cb7OJ3H/2JG1HNGz/84klThPVCc=);strokeColor=#9673a6;points=[[1,0.5,0],[0.5,0,0],[0.5,0.5,0],[0.5,0.5,0]];labelBackgroundColor=none;rounded=0;html=1;whiteSpace=wrap;" parent="1" vertex="1">
            <mxGeometry x="455" y="120" width="14" height="60" as="geometry" />
          </mxCell>
        </UserObject>
        <UserObject label="" tags="Background" id="87">
          <mxCell style="vsdxID=156;fillColor=#e1d5e7;shape=stencil(nZBLDoAgDERP0z3SIyjew0SURgSD+Lu9kMZoXLhwN9O+tukAlrNpJg1SzDH4QW/URgNYgZTkjA4UkwJUgGXng+6DX1zLfmoymdXo17xh5zmRJ6Q42BWCfc2oJfdAr+Yv+AP9Cb7OJ3H/2JG1HNGz/84klThPVCc=);strokeColor=#9673a6;points=[[1,0.5,0],[0.5,0,0],[0.5,0.5,0],[0.5,0.5,0]];labelBackgroundColor=none;rounded=0;html=1;whiteSpace=wrap;" parent="1" vertex="1">
            <mxGeometry x="470" y="120" width="14" height="60" as="geometry" />
          </mxCell>
        </UserObject>
        <UserObject label="" tags="Background" id="88">
          <mxCell style="vsdxID=157;fillColor=#e1d5e7;shape=stencil(nZBLDoAgDERP0z3SIyjew0SURgSD+Lu9kMZoXLhwN9O+tukAlrNpJg1SzDH4QW/URgNYgZTkjA4UkwJUgGXng+6DX1zLfmoymdXo17xh5zmRJ6Q42BWCfc2oJfdAr+Yv+AP9Cb7OJ3H/2JG1HNGz/84klThPVCc=);strokeColor=#9673a6;points=[[1,0.5,0],[0.5,0,0],[0.5,0.5,0],[0.5,0.5,0]];labelBackgroundColor=none;rounded=0;html=1;whiteSpace=wrap;" parent="1" vertex="1">
            <mxGeometry x="484" y="120" width="14" height="60" as="geometry" />
          </mxCell>
        </UserObject>
        <UserObject label="" tags="Background" id="89">
          <mxCell style="vsdxID=158;fillColor=#e1d5e7;shape=stencil(nZBLDoAgDERP0z3SIyjew0SURgSD+Lu9kMZoXLhwN9O+tukAlrNpJg1SzDH4QW/URgNYgZTkjA4UkwJUgGXng+6DX1zLfmoymdXo17xh5zmRJ6Q42BWCfc2oJfdAr+Yv+AP9Cb7OJ3H/2JG1HNGz/84klThPVCc=);strokeColor=#9673a6;points=[[1,0.5,0],[0.5,0,0],[0.5,0.5,0],[0.5,0.5,0]];labelBackgroundColor=none;rounded=0;html=1;whiteSpace=wrap;" parent="1" vertex="1">
            <mxGeometry x="499" y="120" width="14" height="60" as="geometry" />
          </mxCell>
        </UserObject>
        <UserObject label="" tags="Background" id="90">
          <mxCell style="vsdxID=159;fillColor=#e1d5e7;shape=stencil(nZBLDoAgDERP0z3SIyjew0SURgSD+Lu9kMZoXLhwN9O+tukAlrNpJg1SzDH4QW/URgNYgZTkjA4UkwJUgGXng+6DX1zLfmoymdXo17xh5zmRJ6Q42BWCfc2oJfdAr+Yv+AP9Cb7OJ3H/2JG1HNGz/84klThPVCc=);strokeColor=#9673a6;points=[[1,0.5,0],[0.5,0,0],[0.5,0.5,0],[0.5,0.5,0]];labelBackgroundColor=none;rounded=0;html=1;whiteSpace=wrap;" parent="1" vertex="1">
            <mxGeometry x="513" y="120" width="14" height="60" as="geometry" />
          </mxCell>
        </UserObject>
        <UserObject label="" tags="Background" id="91">
          <mxCell style="vsdxID=160;fillColor=#e1d5e7;shape=stencil(nZBLDoAgDERP0z3SIyjew0SURgSD+Lu9kMZoXLhwN9O+tukAlrNpJg1SzDH4QW/URgNYgZTkjA4UkwJUgGXng+6DX1zLfmoymdXo17xh5zmRJ6Q42BWCfc2oJfdAr+Yv+AP9Cb7OJ3H/2JG1HNGz/84klThPVCc=);strokeColor=#9673a6;points=[[1,0.5,0],[0.5,0,0],[0.5,0.5,0],[0.5,0.5,0]];labelBackgroundColor=none;rounded=0;html=1;whiteSpace=wrap;" parent="1" vertex="1">
            <mxGeometry x="528" y="120" width="14" height="60" as="geometry" />
          </mxCell>
        </UserObject>
        <UserObject label="" tags="Background" id="92">
          <mxCell style="vsdxID=161;fillColor=#e1d5e7;shape=stencil(nZBLDoAgDERP0z3SIyjew0SURgSD+Lu9kMZoXLhwN9O+tukAlrNpJg1SzDH4QW/URgNYgZTkjA4UkwJUgGXng+6DX1zLfmoymdXo17xh5zmRJ6Q42BWCfc2oJfdAr+Yv+AP9Cb7OJ3H/2JG1HNGz/84klThPVCc=);strokeColor=#9673a6;points=[[1,0.5,0],[0.5,0,0],[0.5,0.5,0],[0.5,0.5,0]];labelBackgroundColor=none;rounded=0;html=1;whiteSpace=wrap;" parent="1" vertex="1">
            <mxGeometry x="543" y="120" width="14" height="60" as="geometry" />
          </mxCell>
        </UserObject>
        <UserObject label="" tags="Background" id="93">
          <mxCell style="vsdxID=162;fillColor=#e1d5e7;shape=stencil(nZBLDoAgDERP0z3SIyjew0SURgSD+Lu9kMZoXLhwN9O+tukAlrNpJg1SzDH4QW/URgNYgZTkjA4UkwJUgGXng+6DX1zLfmoymdXo17xh5zmRJ6Q42BWCfc2oJfdAr+Yv+AP9Cb7OJ3H/2JG1HNGz/84klThPVCc=);strokeColor=#9673a6;points=[[1,0.5,0],[0.5,0,0],[0.5,0.5,0],[0.5,0.5,0]];labelBackgroundColor=none;rounded=0;html=1;whiteSpace=wrap;" parent="1" vertex="1">
            <mxGeometry x="557" y="120" width="14" height="60" as="geometry" />
          </mxCell>
        </UserObject>
        <UserObject label="" tags="Background" id="94">
          <mxCell style="vsdxID=163;fillColor=#e1d5e7;shape=stencil(nZBLDoAgDERP0z3SIyjew0SURgSD+Lu9kMZoXLhwN9O+tukAlrNpJg1SzDH4QW/URgNYgZTkjA4UkwJUgGXng+6DX1zLfmoymdXo17xh5zmRJ6Q42BWCfc2oJfdAr+Yv+AP9Cb7OJ3H/2JG1HNGz/84klThPVCc=);strokeColor=#9673a6;points=[[1,0.5,0],[0.5,0,0],[0.5,0.5,0],[0.5,0.5,0]];labelBackgroundColor=none;rounded=0;html=1;whiteSpace=wrap;" parent="1" vertex="1">
            <mxGeometry x="572" y="120" width="14" height="60" as="geometry" />
          </mxCell>
        </UserObject>
        <UserObject label="" tags="Background" id="95">
          <mxCell style="vsdxID=164;fillColor=#e1d5e7;shape=stencil(nZBLDoAgDERP0z3SIyjew0SURgSD+Lu9kMZoXLhwN9O+tukAlrNpJg1SzDH4QW/URgNYgZTkjA4UkwJUgGXng+6DX1zLfmoymdXo17xh5zmRJ6Q42BWCfc2oJfdAr+Yv+AP9Cb7OJ3H/2JG1HNGz/84klThPVCc=);strokeColor=#9673a6;points=[[1,0.5,0],[0.5,0,0],[0.5,0.5,0],[0.5,0.5,0]];labelBackgroundColor=none;rounded=0;html=1;whiteSpace=wrap;" parent="1" vertex="1">
            <mxGeometry x="587" y="120" width="14" height="60" as="geometry" />
          </mxCell>
        </UserObject>
        <UserObject label="" tags="Background" id="96">
          <mxCell style="vsdxID=165;fillColor=#e1d5e7;shape=stencil(nZBLDoAgDERP0z3SIyjew0SURgSD+Lu9kMZoXLhwN9O+tukAlrNpJg1SzDH4QW/URgNYgZTkjA4UkwJUgGXng+6DX1zLfmoymdXo17xh5zmRJ6Q42BWCfc2oJfdAr+Yv+AP9Cb7OJ3H/2JG1HNGz/84klThPVCc=);strokeColor=#9673a6;points=[[1,0.5,0],[0.5,0,0],[0.5,0.5,0],[0.5,0.5,0]];labelBackgroundColor=none;rounded=0;html=1;whiteSpace=wrap;" parent="1" vertex="1">
            <mxGeometry x="601" y="120" width="14" height="60" as="geometry" />
          </mxCell>
        </UserObject>
        <UserObject label="" tags="Background" id="97">
          <mxCell style="vsdxID=166;fillColor=#e1d5e7;shape=stencil(nZBLDoAgDERP0z3SIyjew0SURgSD+Lu9kMZoXLhwN9O+tukAlrNpJg1SzDH4QW/URgNYgZTkjA4UkwJUgGXng+6DX1zLfmoymdXo17xh5zmRJ6Q42BWCfc2oJfdAr+Yv+AP9Cb7OJ3H/2JG1HNGz/84klThPVCc=);strokeColor=#9673a6;points=[[1,0.5,0],[0.5,0,0],[0.5,0.5,0],[0.5,0.5,0]];labelBackgroundColor=none;rounded=0;html=1;whiteSpace=wrap;" parent="1" vertex="1">
            <mxGeometry x="616" y="120" width="14" height="60" as="geometry" />
          </mxCell>
        </UserObject>
        <UserObject label="" tags="Background" id="98">
          <mxCell style="vsdxID=167;fillColor=#e1d5e7;shape=stencil(nZBLDoAgDERP0z3SIyjew0SURgSD+Lu9kMZoXLhwN9O+tukAlrNpJg1SzDH4QW/URgNYgZTkjA4UkwJUgGXng+6DX1zLfmoymdXo17xh5zmRJ6Q42BWCfc2oJfdAr+Yv+AP9Cb7OJ3H/2JG1HNGz/84klThPVCc=);strokeColor=#9673a6;points=[[1,0.5,0],[0.5,0,0],[0.5,0.5,0],[0.5,0.5,0]];labelBackgroundColor=none;rounded=0;html=1;whiteSpace=wrap;" parent="1" vertex="1">
            <mxGeometry x="630" y="120" width="14" height="60" as="geometry" />
          </mxCell>
        </UserObject>
        <UserObject label="" tags="Background" id="99">
          <mxCell style="vsdxID=168;fillColor=#e1d5e7;shape=stencil(nZBLDoAgDERP0z3SIyjew0SURgSD+Lu9kMZoXLhwN9O+tukAlrNpJg1SzDH4QW/URgNYgZTkjA4UkwJUgGXng+6DX1zLfmoymdXo17xh5zmRJ6Q42BWCfc2oJfdAr+Yv+AP9Cb7OJ3H/2JG1HNGz/84klThPVCc=);strokeColor=#9673a6;points=[[1,0.5,0],[0.5,0,0],[0.5,0.5,0],[0.5,0.5,0]];labelBackgroundColor=none;rounded=0;html=1;whiteSpace=wrap;" parent="1" vertex="1">
            <mxGeometry x="645" y="120" width="14" height="60" as="geometry" />
          </mxCell>
        </UserObject>
        <UserObject label="" tags="Background" id="100">
          <mxCell style="vsdxID=169;fillColor=#e1d5e7;shape=stencil(nZBLDoAgDERP0z3SIyjew0SURgSD+Lu9kMZoXLhwN9O+tukAlrNpJg1SzDH4QW/URgNYgZTkjA4UkwJUgGXng+6DX1zLfmoymdXo17xh5zmRJ6Q42BWCfc2oJfdAr+Yv+AP9Cb7OJ3H/2JG1HNGz/84klThPVCc=);strokeColor=#9673a6;points=[[1,0.5,0],[0.5,0,0],[0.5,0.5,0],[0.5,0.5,0]];labelBackgroundColor=none;rounded=0;html=1;whiteSpace=wrap;" parent="1" vertex="1">
            <mxGeometry x="660" y="120" width="14" height="60" as="geometry" />
          </mxCell>
        </UserObject>
        <UserObject label="" tags="Background" id="101">
          <mxCell style="vsdxID=170;fillColor=#e1d5e7;shape=stencil(nZBLDoAgDERP0z3SIyjew0SURgSD+Lu9kMZoXLhwN9O+tukAlrNpJg1SzDH4QW/URgNYgZTkjA4UkwJUgGXng+6DX1zLfmoymdXo17xh5zmRJ6Q42BWCfc2oJfdAr+Yv+AP9Cb7OJ3H/2JG1HNGz/84klThPVCc=);strokeColor=#9673a6;points=[[1,0.5,0],[0.5,0,0],[0.5,0.5,0],[0.5,0.5,0]];labelBackgroundColor=none;rounded=0;html=1;whiteSpace=wrap;" parent="1" vertex="1">
            <mxGeometry x="674" y="120" width="14" height="60" as="geometry" />
          </mxCell>
        </UserObject>
        <UserObject label="" tags="Background" id="102">
          <mxCell style="vsdxID=171;fillColor=#e1d5e7;shape=stencil(nZBLDoAgDERP0z3SIyjew0SURgSD+Lu9kMZoXLhwN9O+tukAlrNpJg1SzDH4QW/URgNYgZTkjA4UkwJUgGXng+6DX1zLfmoymdXo17xh5zmRJ6Q42BWCfc2oJfdAr+Yv+AP9Cb7OJ3H/2JG1HNGz/84klThPVCc=);strokeColor=#9673a6;points=[[1,0.5,0],[0.5,0,0],[0.5,0.5,0],[0.5,0.5,0]];labelBackgroundColor=none;rounded=0;html=1;whiteSpace=wrap;" parent="1" vertex="1">
            <mxGeometry x="689" y="120" width="14" height="60" as="geometry" />
          </mxCell>
        </UserObject>
        <UserObject label="" tags="Background" id="103">
          <mxCell style="vsdxID=172;fillColor=#e1d5e7;shape=stencil(nZBLDoAgDERP0z3SIyjew0SURgSD+Lu9kMZoXLhwN9O+tukAlrNpJg1SzDH4QW/URgNYgZTkjA4UkwJUgGXng+6DX1zLfmoymdXo17xh5zmRJ6Q42BWCfc2oJfdAr+Yv+AP9Cb7OJ3H/2JG1HNGz/84klThPVCc=);strokeColor=#9673a6;points=[[1,0.5,0],[0.5,0,0],[0.5,0.5,0],[0.5,0.5,0]];labelBackgroundColor=none;rounded=0;html=1;whiteSpace=wrap;" parent="1" vertex="1">
            <mxGeometry x="704" y="120" width="14" height="60" as="geometry" />
          </mxCell>
        </UserObject>
        <UserObject label="" tags="Background" id="104">
          <mxCell style="vsdxID=173;fillColor=#e1d5e7;shape=stencil(nZBLDoAgDERP0z3SIyjew0SURgSD+Lu9kMZoXLhwN9O+tukAlrNpJg1SzDH4QW/URgNYgZTkjA4UkwJUgGXng+6DX1zLfmoymdXo17xh5zmRJ6Q42BWCfc2oJfdAr+Yv+AP9Cb7OJ3H/2JG1HNGz/84klThPVCc=);strokeColor=#9673a6;points=[[1,0.5,0],[0.5,0,0],[0.5,0.5,0],[0.5,0.5,0]];labelBackgroundColor=none;rounded=0;html=1;whiteSpace=wrap;" parent="1" vertex="1">
            <mxGeometry x="718" y="120" width="14" height="60" as="geometry" />
          </mxCell>
        </UserObject>
        <UserObject label="" tags="Background" id="105">
          <mxCell style="vsdxID=174;fillColor=#e1d5e7;shape=stencil(nZBLDoAgDERP0z3SIyjew0SURgSD+Lu9kMZoXLhwN9O+tukAlrNpJg1SzDH4QW/URgNYgZTkjA4UkwJUgGXng+6DX1zLfmoymdXo17xh5zmRJ6Q42BWCfc2oJfdAr+Yv+AP9Cb7OJ3H/2JG1HNGz/84klThPVCc=);strokeColor=#9673a6;points=[[1,0.5,0],[0.5,0,0],[0.5,0.5,0],[0.5,0.5,0]];labelBackgroundColor=none;rounded=0;html=1;whiteSpace=wrap;" parent="1" vertex="1">
            <mxGeometry x="733" y="120" width="14" height="60" as="geometry" />
          </mxCell>
        </UserObject>
        <UserObject label="" tags="Background" id="106">
          <mxCell style="vsdxID=175;fillColor=#e1d5e7;shape=stencil(nZBLDoAgDERP0z3SIyjew0SURgSD+Lu9kMZoXLhwN9O+tukAlrNpJg1SzDH4QW/URgNYgZTkjA4UkwJUgGXng+6DX1zLfmoymdXo17xh5zmRJ6Q42BWCfc2oJfdAr+Yv+AP9Cb7OJ3H/2JG1HNGz/84klThPVCc=);strokeColor=#9673a6;points=[[1,0.5,0],[0.5,0,0],[0.5,0.5,0],[0.5,0.5,0]];labelBackgroundColor=none;rounded=0;html=1;whiteSpace=wrap;" parent="1" vertex="1">
            <mxGeometry x="747" y="120" width="14" height="60" as="geometry" />
          </mxCell>
        </UserObject>
        <UserObject label="" tags="Background" id="107">
          <mxCell style="vsdxID=176;fillColor=#e1d5e7;shape=stencil(nZBLDoAgDERP0z3SIyjew0SURgSD+Lu9kMZoXLhwN9O+tukAlrNpJg1SzDH4QW/URgNYgZTkjA4UkwJUgGXng+6DX1zLfmoymdXo17xh5zmRJ6Q42BWCfc2oJfdAr+Yv+AP9Cb7OJ3H/2JG1HNGz/84klThPVCc=);strokeColor=#9673a6;points=[[1,0.5,0],[0.5,0,0],[0.5,0.5,0],[0.5,0.5,0]];labelBackgroundColor=none;rounded=0;html=1;whiteSpace=wrap;" parent="1" vertex="1">
            <mxGeometry x="762" y="120" width="14" height="60" as="geometry" />
          </mxCell>
        </UserObject>
        <UserObject label="" tags="Background" id="108">
          <mxCell style="vsdxID=177;fillColor=#e1d5e7;shape=stencil(nZBLDoAgDERP0z3SIyjew0SURgSD+Lu9kMZoXLhwN9O+tukAlrNpJg1SzDH4QW/URgNYgZTkjA4UkwJUgGXng+6DX1zLfmoymdXo17xh5zmRJ6Q42BWCfc2oJfdAr+Yv+AP9Cb7OJ3H/2JG1HNGz/84klThPVCc=);strokeColor=#9673a6;points=[[1,0.5,0],[0.5,0,0],[0.5,0.5,0],[0.5,0.5,0]];labelBackgroundColor=none;rounded=0;html=1;whiteSpace=wrap;" parent="1" vertex="1">
            <mxGeometry x="777" y="120" width="14" height="60" as="geometry" />
          </mxCell>
        </UserObject>
        <UserObject label="" tags="Background" id="109">
          <mxCell style="vsdxID=178;fillColor=#e1d5e7;shape=stencil(nZBLDoAgDERP0z3SIyjew0SURgSD+Lu9kMZoXLhwN9O+tukAlrNpJg1SzDH4QW/URgNYgZTkjA4UkwJUgGXng+6DX1zLfmoymdXo17xh5zmRJ6Q42BWCfc2oJfdAr+Yv+AP9Cb7OJ3H/2JG1HNGz/84klThPVCc=);strokeColor=#9673a6;points=[[1,0.5,0],[0.5,0,0],[0.5,0.5,0],[0.5,0.5,0]];labelBackgroundColor=none;rounded=0;html=1;whiteSpace=wrap;" parent="1" vertex="1">
            <mxGeometry x="791" y="120" width="14" height="60" as="geometry" />
          </mxCell>
        </UserObject>
        <UserObject label="" tags="Background" id="110">
          <mxCell style="vsdxID=179;fillColor=#e1d5e7;shape=stencil(nZBLDoAgDERP0z3SIyjew0SURgSD+Lu9kMZoXLhwN9O+tukAlrNpJg1SzDH4QW/URgNYgZTkjA4UkwJUgGXng+6DX1zLfmoymdXo17xh5zmRJ6Q42BWCfc2oJfdAr+Yv+AP9Cb7OJ3H/2JG1HNGz/84klThPVCc=);strokeColor=#9673a6;points=[[1,0.5,0],[0.5,0,0],[0.5,0.5,0],[0.5,0.5,0]];labelBackgroundColor=none;rounded=0;html=1;whiteSpace=wrap;" parent="1" vertex="1">
            <mxGeometry x="806" y="120" width="14" height="60" as="geometry" />
          </mxCell>
        </UserObject>
        <UserObject label="" tags="Background" id="111">
          <mxCell style="vsdxID=180;fillColor=#e1d5e7;shape=stencil(nZBLDoAgDERP0z3SIyjew0SURgSD+Lu9kMZoXLhwN9O+tukAlrNpJg1SzDH4QW/URgNYgZTkjA4UkwJUgGXng+6DX1zLfmoymdXo17xh5zmRJ6Q42BWCfc2oJfdAr+Yv+AP9Cb7OJ3H/2JG1HNGz/84klThPVCc=);strokeColor=#9673a6;points=[[1,0.5,0],[0.5,0,0],[0.5,0.5,0],[0.5,0.5,0]];labelBackgroundColor=none;rounded=0;html=1;whiteSpace=wrap;" parent="1" vertex="1">
            <mxGeometry x="821" y="120" width="14" height="60" as="geometry" />
          </mxCell>
        </UserObject>
        <UserObject label="" tags="Background" id="112">
          <mxCell style="vsdxID=181;fillColor=#e1d5e7;shape=stencil(nZBLDoAgDERP0z3SIyjew0SURgSD+Lu9kMZoXLhwN9O+tukAlrNpJg1SzDH4QW/URgNYgZTkjA4UkwJUgGXng+6DX1zLfmoymdXo17xh5zmRJ6Q42BWCfc2oJfdAr+Yv+AP9Cb7OJ3H/2JG1HNGz/84klThPVCc=);strokeColor=#9673a6;points=[[1,0.5,0],[0.5,0,0],[0.5,0.5,0],[0.5,0.5,0]];labelBackgroundColor=none;rounded=0;html=1;whiteSpace=wrap;" parent="1" vertex="1">
            <mxGeometry x="835" y="120" width="14" height="60" as="geometry" />
          </mxCell>
        </UserObject>
        <UserObject label="" tags="Background" id="113">
          <mxCell style="vsdxID=182;fillColor=#e1d5e7;shape=stencil(nZBLDoAgDERP0z3SIyjew0SURgSD+Lu9kMZoXLhwN9O+tukAlrNpJg1SzDH4QW/URgNYgZTkjA4UkwJUgGXng+6DX1zLfmoymdXo17xh5zmRJ6Q42BWCfc2oJfdAr+Yv+AP9Cb7OJ3H/2JG1HNGz/84klThPVCc=);strokeColor=#9673a6;points=[[1,0.5,0],[0.5,0,0],[0.5,0.5,0],[0.5,0.5,0]];labelBackgroundColor=none;rounded=0;html=1;whiteSpace=wrap;" parent="1" vertex="1">
            <mxGeometry x="850" y="120" width="14" height="60" as="geometry" />
          </mxCell>
        </UserObject>
        <UserObject label="" tags="Background" id="114">
          <mxCell style="vsdxID=183;fillColor=#e1d5e7;shape=stencil(nZBLDoAgDERP0z3SIyjew0SURgSD+Lu9kMZoXLhwN9O+tukAlrNpJg1SzDH4QW/URgNYgZTkjA4UkwJUgGXng+6DX1zLfmoymdXo17xh5zmRJ6Q42BWCfc2oJfdAr+Yv+AP9Cb7OJ3H/2JG1HNGz/84klThPVCc=);strokeColor=#9673a6;points=[[1,0.5,0],[0.5,0,0],[0.5,0.5,0],[0.5,0.5,0]];labelBackgroundColor=none;rounded=0;html=1;whiteSpace=wrap;" parent="1" vertex="1">
            <mxGeometry x="864" y="120" width="14" height="60" as="geometry" />
          </mxCell>
        </UserObject>
        <UserObject label="" tags="Background" id="115">
          <mxCell style="vsdxID=184;fillColor=#e1d5e7;shape=stencil(nZBLDoAgDERP0z3SIyjew0SURgSD+Lu9kMZoXLhwN9O+tukAlrNpJg1SzDH4QW/URgNYgZTkjA4UkwJUgGXng+6DX1zLfmoymdXo17xh5zmRJ6Q42BWCfc2oJfdAr+Yv+AP9Cb7OJ3H/2JG1HNGz/84klThPVCc=);strokeColor=#9673a6;points=[[1,0.5,0],[0.5,0,0],[0.5,0.5,0],[0.5,0.5,0]];labelBackgroundColor=none;rounded=0;html=1;whiteSpace=wrap;" parent="1" vertex="1">
            <mxGeometry x="879" y="120" width="14" height="60" as="geometry" />
          </mxCell>
        </UserObject>
        <UserObject label="" tags="Background" id="116">
          <mxCell style="vsdxID=185;fillColor=#e1d5e7;shape=stencil(nZBLDoAgDERP0z3SIyjew0SURgSD+Lu9kMZoXLhwN9O+tukAlrNpJg1SzDH4QW/URgNYgZTkjA4UkwJUgGXng+6DX1zLfmoymdXo17xh5zmRJ6Q42BWCfc2oJfdAr+Yv+AP9Cb7OJ3H/2JG1HNGz/84klThPVCc=);strokeColor=#9673a6;points=[[1,0.5,0],[0.5,0,0],[0.5,0.5,0],[0.5,0.5,0]];labelBackgroundColor=none;rounded=0;html=1;whiteSpace=wrap;" parent="1" vertex="1">
            <mxGeometry x="894" y="120" width="14" height="60" as="geometry" />
          </mxCell>
        </UserObject>
        <UserObject label="" tags="Background" id="117">
          <mxCell style="vsdxID=186;fillColor=#e1d5e7;shape=stencil(nZBLDoAgDERP0z3SIyjew0SURgSD+Lu9kMZoXLhwN9O+tukAlrNpJg1SzDH4QW/URgNYgZTkjA4UkwJUgGXng+6DX1zLfmoymdXo17xh5zmRJ6Q42BWCfc2oJfdAr+Yv+AP9Cb7OJ3H/2JG1HNGz/84klThPVCc=);strokeColor=#9673a6;points=[[1,0.5,0],[0.5,0,0],[0.5,0.5,0],[0.5,0.5,0]];labelBackgroundColor=none;rounded=0;html=1;whiteSpace=wrap;" parent="1" vertex="1">
            <mxGeometry x="908" y="120" width="14" height="60" as="geometry" />
          </mxCell>
        </UserObject>
        <UserObject label="" tags="Background" id="118">
          <mxCell style="vsdxID=187;fillColor=#e1d5e7;shape=stencil(nZBLDoAgDERP0z3SIyjew0SURgSD+Lu9kMZoXLhwN9O+tukAlrNpJg1SzDH4QW/URgNYgZTkjA4UkwJUgGXng+6DX1zLfmoymdXo17xh5zmRJ6Q42BWCfc2oJfdAr+Yv+AP9Cb7OJ3H/2JG1HNGz/84klThPVCc=);strokeColor=#9673a6;points=[[1,0.5,0],[0.5,0,0],[0.5,0.5,0],[0.5,0.5,0]];labelBackgroundColor=none;rounded=0;html=1;whiteSpace=wrap;" parent="1" vertex="1">
            <mxGeometry x="923" y="120" width="14" height="60" as="geometry" />
          </mxCell>
        </UserObject>
        <UserObject label="" tags="Background" id="119">
          <mxCell style="vsdxID=188;fillColor=#e1d5e7;shape=stencil(nZBLDoAgDERP0z3SIyjew0SURgSD+Lu9kMZoXLhwN9O+tukAlrNpJg1SzDH4QW/URgNYgZTkjA4UkwJUgGXng+6DX1zLfmoymdXo17xh5zmRJ6Q42BWCfc2oJfdAr+Yv+AP9Cb7OJ3H/2JG1HNGz/84klThPVCc=);strokeColor=#9673a6;points=[[1,0.5,0],[0.5,0,0],[0.5,0.5,0],[0.5,0.5,0]];labelBackgroundColor=none;rounded=0;html=1;whiteSpace=wrap;" parent="1" vertex="1">
            <mxGeometry x="938" y="120" width="14" height="60" as="geometry" />
          </mxCell>
        </UserObject>
        <UserObject label="" tags="Background" id="120">
          <mxCell style="vsdxID=189;fillColor=#e1d5e7;shape=stencil(nZBLDoAgDERP0z3SIyjew0SURgSD+Lu9kMZoXLhwN9O+tukAlrNpJg1SzDH4QW/URgNYgZTkjA4UkwJUgGXng+6DX1zLfmoymdXo17xh5zmRJ6Q42BWCfc2oJfdAr+Yv+AP9Cb7OJ3H/2JG1HNGz/84klThPVCc=);strokeColor=#9673a6;points=[[1,0.5,0],[0.5,0,0],[0.5,0.5,0],[0.5,0.5,0]];labelBackgroundColor=none;rounded=0;html=1;whiteSpace=wrap;" parent="1" vertex="1">
            <mxGeometry x="952" y="120" width="14" height="60" as="geometry" />
          </mxCell>
        </UserObject>
        <UserObject label="" tags="Background" id="121">
          <mxCell style="vsdxID=190;fillColor=#e1d5e7;shape=stencil(nZBLDoAgDERP0z3SIyjew0SURgSD+Lu9kMZoXLhwN9O+tukAlrNpJg1SzDH4QW/URgNYgZTkjA4UkwJUgGXng+6DX1zLfmoymdXo17xh5zmRJ6Q42BWCfc2oJfdAr+Yv+AP9Cb7OJ3H/2JG1HNGz/84klThPVCc=);strokeColor=#9673a6;points=[[1,0.5,0],[0.5,0,0],[0.5,0.5,0],[0.5,0.5,0]];labelBackgroundColor=none;rounded=0;html=1;whiteSpace=wrap;" parent="1" vertex="1">
            <mxGeometry x="967" y="120" width="14" height="60" as="geometry" />
          </mxCell>
        </UserObject>
        <UserObject label="" tags="Background" id="122">
          <mxCell style="vsdxID=191;fillColor=#e1d5e7;shape=stencil(nZBLDoAgDERP0z3SIyjew0SURgSD+Lu9kMZoXLhwN9O+tukAlrNpJg1SzDH4QW/URgNYgZTkjA4UkwJUgGXng+6DX1zLfmoymdXo17xh5zmRJ6Q42BWCfc2oJfdAr+Yv+AP9Cb7OJ3H/2JG1HNGz/84klThPVCc=);strokeColor=#9673a6;points=[[1,0.5,0],[0.5,0,0],[0.5,0.5,0],[0.5,0.5,0]];labelBackgroundColor=none;rounded=0;html=1;whiteSpace=wrap;" parent="1" vertex="1">
            <mxGeometry x="981" y="120" width="14" height="60" as="geometry" />
          </mxCell>
        </UserObject>
        <UserObject label="" tags="Background" id="123">
          <mxCell style="vsdxID=192;fillColor=#ffffff;gradientColor=none;shape=stencil(nZBLDoAgDERP0z3SIyjew0SURgSD+Lu9kMZoXLhwN9O+tukAlrNpJg1SzDH4QW/URgNYgZTkjA4UkwJUgGXng+6DX1zLfmoymdXo17xh5zmRJ6Q42BWCfc2oJfdAr+Yv+AP9Cb7OJ3H/2JG1HNGz/84klThPVCc=);strokeColor=#000000;points=[[1,0.5,0],[0.5,0,0],[0.5,0.5,0],[0.5,0.5,0]];labelBackgroundColor=none;rounded=0;html=1;whiteSpace=wrap;" parent="1" vertex="1">
            <mxGeometry x="996" y="120" width="14" height="60" as="geometry" />
          </mxCell>
        </UserObject>
        <UserObject label="" tags="Background" id="124">
          <mxCell style="vsdxID=193;fillColor=#ffffff;gradientColor=none;shape=stencil(nZBLDoAgDERP0z3SIyjew0SURgSD+Lu9kMZoXLhwN9O+tukAlrNpJg1SzDH4QW/URgNYgZTkjA4UkwJUgGXng+6DX1zLfmoymdXo17xh5zmRJ6Q42BWCfc2oJfdAr+Yv+AP9Cb7OJ3H/2JG1HNGz/84klThPVCc=);strokeColor=#000000;points=[[1,0.5,0],[0.5,0,0],[0.5,0.5,0],[0.5,0.5,0]];labelBackgroundColor=none;rounded=0;html=1;whiteSpace=wrap;" parent="1" vertex="1">
            <mxGeometry x="1011" y="120" width="14" height="60" as="geometry" />
          </mxCell>
        </UserObject>
        <UserObject label="" tags="Background" id="125">
          <mxCell style="vsdxID=194;fillColor=#ffffff;gradientColor=none;shape=stencil(nZBLDoAgDERP0z3SIyjew0SURgSD+Lu9kMZoXLhwN9O+tukAlrNpJg1SzDH4QW/URgNYgZTkjA4UkwJUgGXng+6DX1zLfmoymdXo17xh5zmRJ6Q42BWCfc2oJfdAr+Yv+AP9Cb7OJ3H/2JG1HNGz/84klThPVCc=);strokeColor=#000000;points=[[1,0.5,0],[0.5,0,0],[0.5,0.5,0],[0.5,0.5,0]];labelBackgroundColor=none;rounded=0;html=1;whiteSpace=wrap;" parent="1" vertex="1">
            <mxGeometry x="1025" y="120" width="14" height="60" as="geometry" />
          </mxCell>
        </UserObject>
        <UserObject label="" tags="Background" id="126">
          <mxCell style="vsdxID=195;fillColor=#ffffff;gradientColor=none;shape=stencil(nZBLDoAgDERP0z3SIyjew0SURgSD+Lu9kMZoXLhwN9O+tukAlrNpJg1SzDH4QW/URgNYgZTkjA4UkwJUgGXng+6DX1zLfmoymdXo17xh5zmRJ6Q42BWCfc2oJfdAr+Yv+AP9Cb7OJ3H/2JG1HNGz/84klThPVCc=);strokeColor=#000000;points=[[1,0.5,0],[0.5,0,0],[0.5,0.5,0],[0.5,0.5,0]];labelBackgroundColor=none;rounded=0;html=1;whiteSpace=wrap;" parent="1" vertex="1">
            <mxGeometry x="1040" y="120" width="14" height="60" as="geometry" />
          </mxCell>
        </UserObject>
        <UserObject label="" tags="Background" id="127">
          <mxCell style="vsdxID=196;fillColor=#ffffff;gradientColor=none;shape=stencil(nZBLDoAgDERP0z3SIyjew0SURgSD+Lu9kMZoXLhwN9O+tukAlrNpJg1SzDH4QW/URgNYgZTkjA4UkwJUgGXng+6DX1zLfmoymdXo17xh5zmRJ6Q42BWCfc2oJfdAr+Yv+AP9Cb7OJ3H/2JG1HNGz/84klThPVCc=);strokeColor=#000000;points=[[1,0.5,0],[0.5,0,0],[0.5,0.5,0],[0.5,0.5,0]];labelBackgroundColor=none;rounded=0;html=1;whiteSpace=wrap;" parent="1" vertex="1">
            <mxGeometry x="1055" y="120" width="14" height="60" as="geometry" />
          </mxCell>
        </UserObject>
        <UserObject label="" tags="Background" id="128">
          <mxCell style="vsdxID=197;fillColor=#ffffff;gradientColor=none;shape=stencil(nZBLDoAgDERP0z3SIyjew0SURgSD+Lu9kMZoXLhwN9O+tukAlrNpJg1SzDH4QW/URgNYgZTkjA4UkwJUgGXng+6DX1zLfmoymdXo17xh5zmRJ6Q42BWCfc2oJfdAr+Yv+AP9Cb7OJ3H/2JG1HNGz/84klThPVCc=);strokeColor=#000000;points=[[1,0.5,0],[0.5,0,0],[0.5,0.5,0],[0.5,0.5,0]];labelBackgroundColor=none;rounded=0;html=1;whiteSpace=wrap;" parent="1" vertex="1">
            <mxGeometry x="1069" y="120" width="14" height="60" as="geometry" />
          </mxCell>
        </UserObject>
        <UserObject label="" tags="Background" id="129">
          <mxCell style="vsdxID=198;fillColor=#ffffff;gradientColor=none;shape=stencil(nZBLDoAgDERP0z3SIyjew0SURgSD+Lu9kMZoXLhwN9O+tukAlrNpJg1SzDH4QW/URgNYgZTkjA4UkwJUgGXng+6DX1zLfmoymdXo17xh5zmRJ6Q42BWCfc2oJfdAr+Yv+AP9Cb7OJ3H/2JG1HNGz/84klThPVCc=);strokeColor=#000000;points=[[1,0.5,0],[0.5,0,0],[0.5,0.5,0],[0.5,0.5,0]];labelBackgroundColor=none;rounded=0;html=1;whiteSpace=wrap;" parent="1" vertex="1">
            <mxGeometry x="1084" y="120" width="14" height="60" as="geometry" />
          </mxCell>
        </UserObject>
        <UserObject label="" tags="Background" id="130">
          <mxCell style="vsdxID=199;fillColor=#e1d5e7;shape=stencil(nZBLDoAgDERP0z3SIyjew0SURgSD+Lu9kMZoXLhwN9O+tukAlrNpJg1SzDH4QW/URgNYgZTkjA4UkwJUgGXng+6DX1zLfmoymdXo17xh5zmRJ6Q42BWCfc2oJfdAr+Yv+AP9Cb7OJ3H/2JG1HNGz/84klThPVCc=);strokeColor=#9673a6;points=[[1,0.5,0],[0.5,0,0],[0.5,0.5,0],[0.5,0.5,0]];labelBackgroundColor=none;rounded=0;html=1;whiteSpace=wrap;" parent="1" vertex="1">
            <mxGeometry x="162" y="220" width="14" height="60" as="geometry" />
          </mxCell>
        </UserObject>
        <UserObject label="" tags="Background" id="131">
          <mxCell style="vsdxID=200;fillColor=#ffffff;gradientColor=none;shape=stencil(nZBLDoAgDERP0z3SIyjew0SURgSD+Lu9kMZoXLhwN9O+tukAlrNpJg1SzDH4QW/URgNYgZTkjA4UkwJUgGXng+6DX1zLfmoymdXo17xh5zmRJ6Q42BWCfc2oJfdAr+Yv+AP9Cb7OJ3H/2JG1HNGz/84klThPVCc=);strokeColor=#000000;points=[[1,0.5,0],[0.5,0,0],[0.5,0.5,0],[0.5,0.5,0]];labelBackgroundColor=none;rounded=0;html=1;whiteSpace=wrap;" parent="1" vertex="1">
            <mxGeometry x="177" y="220" width="14" height="60" as="geometry" />
          </mxCell>
        </UserObject>
        <UserObject label="" tags="Background" id="132">
          <mxCell style="vsdxID=201;fillColor=#e1d5e7;shape=stencil(nZBLDoAgDERP0z3SIyjew0SURgSD+Lu9kMZoXLhwN9O+tukAlrNpJg1SzDH4QW/URgNYgZTkjA4UkwJUgGXng+6DX1zLfmoymdXo17xh5zmRJ6Q42BWCfc2oJfdAr+Yv+AP9Cb7OJ3H/2JG1HNGz/84klThPVCc=);strokeColor=#9673a6;points=[[1,0.5,0],[0.5,0,0],[0.5,0.5,0],[0.5,0.5,0]];labelBackgroundColor=none;rounded=0;html=1;whiteSpace=wrap;" parent="1" vertex="1">
            <mxGeometry x="192" y="220" width="14" height="60" as="geometry" />
          </mxCell>
        </UserObject>
        <UserObject label="" tags="Background" id="133">
          <mxCell style="vsdxID=202;fillColor=#e1d5e7;shape=stencil(nZBLDoAgDERP0z3SIyjew0SURgSD+Lu9kMZoXLhwN9O+tukAlrNpJg1SzDH4QW/URgNYgZTkjA4UkwJUgGXng+6DX1zLfmoymdXo17xh5zmRJ6Q42BWCfc2oJfdAr+Yv+AP9Cb7OJ3H/2JG1HNGz/84klThPVCc=);strokeColor=#9673a6;points=[[1,0.5,0],[0.5,0,0],[0.5,0.5,0],[0.5,0.5,0]];labelBackgroundColor=none;rounded=0;html=1;whiteSpace=wrap;" parent="1" vertex="1">
            <mxGeometry x="206" y="220" width="14" height="60" as="geometry" />
          </mxCell>
        </UserObject>
        <UserObject label="" tags="Background" id="134">
          <mxCell style="vsdxID=203;fillColor=#e1d5e7;shape=stencil(nZBLDoAgDERP0z3SIyjew0SURgSD+Lu9kMZoXLhwN9O+tukAlrNpJg1SzDH4QW/URgNYgZTkjA4UkwJUgGXng+6DX1zLfmoymdXo17xh5zmRJ6Q42BWCfc2oJfdAr+Yv+AP9Cb7OJ3H/2JG1HNGz/84klThPVCc=);strokeColor=#9673a6;points=[[1,0.5,0],[0.5,0,0],[0.5,0.5,0],[0.5,0.5,0]];labelBackgroundColor=none;rounded=0;html=1;whiteSpace=wrap;" parent="1" vertex="1">
            <mxGeometry x="221" y="220" width="14" height="60" as="geometry" />
          </mxCell>
        </UserObject>
        <UserObject label="" tags="Background" id="135">
          <mxCell style="vsdxID=204;fillColor=#ffffff;gradientColor=none;shape=stencil(nZBLDoAgDERP0z3SIyjew0SURgSD+Lu9kMZoXLhwN9O+tukAlrNpJg1SzDH4QW/URgNYgZTkjA4UkwJUgGXng+6DX1zLfmoymdXo17xh5zmRJ6Q42BWCfc2oJfdAr+Yv+AP9Cb7OJ3H/2JG1HNGz/84klThPVCc=);strokeColor=#000000;points=[[1,0.5,0],[0.5,0,0],[0.5,0.5,0],[0.5,0.5,0]];labelBackgroundColor=none;rounded=0;html=1;whiteSpace=wrap;" parent="1" vertex="1">
            <mxGeometry x="236" y="220" width="14" height="60" as="geometry" />
          </mxCell>
        </UserObject>
        <UserObject label="" tags="Background" id="136">
          <mxCell style="vsdxID=205;fillColor=#ffffff;gradientColor=none;shape=stencil(nZBLDoAgDERP0z3SIyjew0SURgSD+Lu9kMZoXLhwN9O+tukAlrNpJg1SzDH4QW/URgNYgZTkjA4UkwJUgGXng+6DX1zLfmoymdXo17xh5zmRJ6Q42BWCfc2oJfdAr+Yv+AP9Cb7OJ3H/2JG1HNGz/84klThPVCc=);strokeColor=#000000;points=[[1,0.5,0],[0.5,0,0],[0.5,0.5,0],[0.5,0.5,0]];labelBackgroundColor=none;rounded=0;html=1;whiteSpace=wrap;" parent="1" vertex="1">
            <mxGeometry x="250" y="220" width="14" height="60" as="geometry" />
          </mxCell>
        </UserObject>
        <UserObject label="" tags="Background" id="137">
          <mxCell style="vsdxID=206;fillColor=#e1d5e7;shape=stencil(nZBLDoAgDERP0z3SIyjew0SURgSD+Lu9kMZoXLhwN9O+tukAlrNpJg1SzDH4QW/URgNYgZTkjA4UkwJUgGXng+6DX1zLfmoymdXo17xh5zmRJ6Q42BWCfc2oJfdAr+Yv+AP9Cb7OJ3H/2JG1HNGz/84klThPVCc=);strokeColor=#9673a6;points=[[1,0.5,0],[0.5,0,0],[0.5,0.5,0],[0.5,0.5,0]];labelBackgroundColor=none;rounded=0;html=1;whiteSpace=wrap;" parent="1" vertex="1">
            <mxGeometry x="265" y="220" width="14" height="60" as="geometry" />
          </mxCell>
        </UserObject>
        <UserObject label="" tags="Background" id="138">
          <mxCell style="vsdxID=207;fillColor=#e1d5e7;shape=stencil(nZBLDoAgDERP0z3SIyjew0SURgSD+Lu9kMZoXLhwN9O+tukAlrNpJg1SzDH4QW/URgNYgZTkjA4UkwJUgGXng+6DX1zLfmoymdXo17xh5zmRJ6Q42BWCfc2oJfdAr+Yv+AP9Cb7OJ3H/2JG1HNGz/84klThPVCc=);strokeColor=#9673a6;points=[[1,0.5,0],[0.5,0,0],[0.5,0.5,0],[0.5,0.5,0]];labelBackgroundColor=none;rounded=0;html=1;whiteSpace=wrap;" parent="1" vertex="1">
            <mxGeometry x="279" y="220" width="14" height="60" as="geometry" />
          </mxCell>
        </UserObject>
        <UserObject label="" tags="Background" id="139">
          <mxCell style="vsdxID=208;fillColor=#e1d5e7;shape=stencil(nZBLDoAgDERP0z3SIyjew0SURgSD+Lu9kMZoXLhwN9O+tukAlrNpJg1SzDH4QW/URgNYgZTkjA4UkwJUgGXng+6DX1zLfmoymdXo17xh5zmRJ6Q42BWCfc2oJfdAr+Yv+AP9Cb7OJ3H/2JG1HNGz/84klThPVCc=);strokeColor=#9673a6;points=[[1,0.5,0],[0.5,0,0],[0.5,0.5,0],[0.5,0.5,0]];labelBackgroundColor=none;rounded=0;html=1;whiteSpace=wrap;" parent="1" vertex="1">
            <mxGeometry x="294" y="220" width="14" height="60" as="geometry" />
          </mxCell>
        </UserObject>
        <UserObject label="" tags="Background" id="140">
          <mxCell style="vsdxID=209;fillColor=#e1d5e7;shape=stencil(nZBLDoAgDERP0z3SIyjew0SURgSD+Lu9kMZoXLhwN9O+tukAlrNpJg1SzDH4QW/URgNYgZTkjA4UkwJUgGXng+6DX1zLfmoymdXo17xh5zmRJ6Q42BWCfc2oJfdAr+Yv+AP9Cb7OJ3H/2JG1HNGz/84klThPVCc=);strokeColor=#9673a6;points=[[1,0.5,0],[0.5,0,0],[0.5,0.5,0],[0.5,0.5,0]];labelBackgroundColor=none;rounded=0;html=1;whiteSpace=wrap;" parent="1" vertex="1">
            <mxGeometry x="309" y="220" width="14" height="60" as="geometry" />
          </mxCell>
        </UserObject>
        <UserObject label="" tags="Background" id="141">
          <mxCell style="vsdxID=210;fillColor=#e1d5e7;shape=stencil(nZBLDoAgDERP0z3SIyjew0SURgSD+Lu9kMZoXLhwN9O+tukAlrNpJg1SzDH4QW/URgNYgZTkjA4UkwJUgGXng+6DX1zLfmoymdXo17xh5zmRJ6Q42BWCfc2oJfdAr+Yv+AP9Cb7OJ3H/2JG1HNGz/84klThPVCc=);strokeColor=#9673a6;points=[[1,0.5,0],[0.5,0,0],[0.5,0.5,0],[0.5,0.5,0]];labelBackgroundColor=none;rounded=0;html=1;whiteSpace=wrap;" parent="1" vertex="1">
            <mxGeometry x="323" y="220" width="14" height="60" as="geometry" />
          </mxCell>
        </UserObject>
        <UserObject label="" tags="Background" id="142">
          <mxCell style="vsdxID=211;fillColor=#e1d5e7;shape=stencil(nZBLDoAgDERP0z3SIyjew0SURgSD+Lu9kMZoXLhwN9O+tukAlrNpJg1SzDH4QW/URgNYgZTkjA4UkwJUgGXng+6DX1zLfmoymdXo17xh5zmRJ6Q42BWCfc2oJfdAr+Yv+AP9Cb7OJ3H/2JG1HNGz/84klThPVCc=);strokeColor=#9673a6;points=[[1,0.5,0],[0.5,0,0],[0.5,0.5,0],[0.5,0.5,0]];labelBackgroundColor=none;rounded=0;html=1;whiteSpace=wrap;" parent="1" vertex="1">
            <mxGeometry x="338" y="220" width="14" height="60" as="geometry" />
          </mxCell>
        </UserObject>
        <UserObject label="" tags="Background" id="143">
          <mxCell style="vsdxID=212;fillColor=#ffffff;gradientColor=none;shape=stencil(nZBLDoAgDERP0z3SIyjew0SURgSD+Lu9kMZoXLhwN9O+tukAlrNpJg1SzDH4QW/URgNYgZTkjA4UkwJUgGXng+6DX1zLfmoymdXo17xh5zmRJ6Q42BWCfc2oJfdAr+Yv+AP9Cb7OJ3H/2JG1HNGz/84klThPVCc=);strokeColor=#000000;points=[[1,0.5,0],[0.5,0,0],[0.5,0.5,0],[0.5,0.5,0]];labelBackgroundColor=none;rounded=0;html=1;whiteSpace=wrap;" parent="1" vertex="1">
            <mxGeometry x="353" y="220" width="14" height="60" as="geometry" />
          </mxCell>
        </UserObject>
        <UserObject label="" tags="Background" id="144">
          <mxCell style="vsdxID=213;fillColor=#e1d5e7;shape=stencil(nZBLDoAgDERP0z3SIyjew0SURgSD+Lu9kMZoXLhwN9O+tukAlrNpJg1SzDH4QW/URgNYgZTkjA4UkwJUgGXng+6DX1zLfmoymdXo17xh5zmRJ6Q42BWCfc2oJfdAr+Yv+AP9Cb7OJ3H/2JG1HNGz/84klThPVCc=);strokeColor=#9673a6;points=[[1,0.5,0],[0.5,0,0],[0.5,0.5,0],[0.5,0.5,0]];labelBackgroundColor=none;rounded=0;html=1;whiteSpace=wrap;" parent="1" vertex="1">
            <mxGeometry x="367" y="220" width="14" height="60" as="geometry" />
          </mxCell>
        </UserObject>
        <UserObject label="" tags="Background" id="145">
          <mxCell style="vsdxID=214;fillColor=#e1d5e7;shape=stencil(nZBLDoAgDERP0z3SIyjew0SURgSD+Lu9kMZoXLhwN9O+tukAlrNpJg1SzDH4QW/URgNYgZTkjA4UkwJUgGXng+6DX1zLfmoymdXo17xh5zmRJ6Q42BWCfc2oJfdAr+Yv+AP9Cb7OJ3H/2JG1HNGz/84klThPVCc=);strokeColor=#9673a6;points=[[1,0.5,0],[0.5,0,0],[0.5,0.5,0],[0.5,0.5,0]];labelBackgroundColor=none;rounded=0;html=1;whiteSpace=wrap;" parent="1" vertex="1">
            <mxGeometry x="382" y="220" width="14" height="60" as="geometry" />
          </mxCell>
        </UserObject>
        <UserObject label="" tags="Background" id="146">
          <mxCell style="vsdxID=215;fillColor=#e1d5e7;shape=stencil(nZBLDoAgDERP0z3SIyjew0SURgSD+Lu9kMZoXLhwN9O+tukAlrNpJg1SzDH4QW/URgNYgZTkjA4UkwJUgGXng+6DX1zLfmoymdXo17xh5zmRJ6Q42BWCfc2oJfdAr+Yv+AP9Cb7OJ3H/2JG1HNGz/84klThPVCc=);strokeColor=#9673a6;points=[[1,0.5,0],[0.5,0,0],[0.5,0.5,0],[0.5,0.5,0]];labelBackgroundColor=none;rounded=0;html=1;whiteSpace=wrap;" parent="1" vertex="1">
            <mxGeometry x="396" y="220" width="14" height="60" as="geometry" />
          </mxCell>
        </UserObject>
        <UserObject label="" tags="Background" id="147">
          <mxCell style="vsdxID=216;fillColor=#e1d5e7;shape=stencil(nZBLDoAgDERP0z3SIyjew0SURgSD+Lu9kMZoXLhwN9O+tukAlrNpJg1SzDH4QW/URgNYgZTkjA4UkwJUgGXng+6DX1zLfmoymdXo17xh5zmRJ6Q42BWCfc2oJfdAr+Yv+AP9Cb7OJ3H/2JG1HNGz/84klThPVCc=);strokeColor=#9673a6;points=[[1,0.5,0],[0.5,0,0],[0.5,0.5,0],[0.5,0.5,0]];labelBackgroundColor=none;rounded=0;html=1;whiteSpace=wrap;" parent="1" vertex="1">
            <mxGeometry x="411" y="220" width="14" height="60" as="geometry" />
          </mxCell>
        </UserObject>
        <UserObject label="" tags="Background" id="148">
          <mxCell style="vsdxID=217;fillColor=#e1d5e7;shape=stencil(nZBLDoAgDERP0z3SIyjew0SURgSD+Lu9kMZoXLhwN9O+tukAlrNpJg1SzDH4QW/URgNYgZTkjA4UkwJUgGXng+6DX1zLfmoymdXo17xh5zmRJ6Q42BWCfc2oJfdAr+Yv+AP9Cb7OJ3H/2JG1HNGz/84klThPVCc=);strokeColor=#9673a6;points=[[1,0.5,0],[0.5,0,0],[0.5,0.5,0],[0.5,0.5,0]];labelBackgroundColor=none;rounded=0;html=1;whiteSpace=wrap;" parent="1" vertex="1">
            <mxGeometry x="426" y="220" width="14" height="60" as="geometry" />
          </mxCell>
        </UserObject>
        <UserObject label="" tags="Background" id="149">
          <mxCell style="vsdxID=218;fillColor=#ffffff;gradientColor=none;shape=stencil(nZBLDoAgDERP0z3SIyjew0SURgSD+Lu9kMZoXLhwN9O+tukAlrNpJg1SzDH4QW/URgNYgZTkjA4UkwJUgGXng+6DX1zLfmoymdXo17xh5zmRJ6Q42BWCfc2oJfdAr+Yv+AP9Cb7OJ3H/2JG1HNGz/84klThPVCc=);strokeColor=#000000;points=[[1,0.5,0],[0.5,0,0],[0.5,0.5,0],[0.5,0.5,0]];labelBackgroundColor=none;rounded=0;html=1;whiteSpace=wrap;" parent="1" vertex="1">
            <mxGeometry x="440" y="220" width="14" height="60" as="geometry" />
          </mxCell>
        </UserObject>
        <UserObject label="" tags="Background" id="150">
          <mxCell style="vsdxID=219;fillColor=#e1d5e7;shape=stencil(nZBLDoAgDERP0z3SIyjew0SURgSD+Lu9kMZoXLhwN9O+tukAlrNpJg1SzDH4QW/URgNYgZTkjA4UkwJUgGXng+6DX1zLfmoymdXo17xh5zmRJ6Q42BWCfc2oJfdAr+Yv+AP9Cb7OJ3H/2JG1HNGz/84klThPVCc=);strokeColor=#9673a6;points=[[1,0.5,0],[0.5,0,0],[0.5,0.5,0],[0.5,0.5,0]];labelBackgroundColor=none;rounded=0;html=1;whiteSpace=wrap;" parent="1" vertex="1">
            <mxGeometry x="455" y="220" width="14" height="60" as="geometry" />
          </mxCell>
        </UserObject>
        <UserObject label="" tags="Background" id="151">
          <mxCell style="vsdxID=220;fillColor=#e1d5e7;shape=stencil(nZBLDoAgDERP0z3SIyjew0SURgSD+Lu9kMZoXLhwN9O+tukAlrNpJg1SzDH4QW/URgNYgZTkjA4UkwJUgGXng+6DX1zLfmoymdXo17xh5zmRJ6Q42BWCfc2oJfdAr+Yv+AP9Cb7OJ3H/2JG1HNGz/84klThPVCc=);strokeColor=#9673a6;points=[[1,0.5,0],[0.5,0,0],[0.5,0.5,0],[0.5,0.5,0]];labelBackgroundColor=none;rounded=0;html=1;whiteSpace=wrap;" parent="1" vertex="1">
            <mxGeometry x="470" y="220" width="14" height="60" as="geometry" />
          </mxCell>
        </UserObject>
        <UserObject label="" tags="Background" id="152">
          <mxCell style="vsdxID=221;fillColor=#e1d5e7;shape=stencil(nZBLDoAgDERP0z3SIyjew0SURgSD+Lu9kMZoXLhwN9O+tukAlrNpJg1SzDH4QW/URgNYgZTkjA4UkwJUgGXng+6DX1zLfmoymdXo17xh5zmRJ6Q42BWCfc2oJfdAr+Yv+AP9Cb7OJ3H/2JG1HNGz/84klThPVCc=);strokeColor=#9673a6;points=[[1,0.5,0],[0.5,0,0],[0.5,0.5,0],[0.5,0.5,0]];labelBackgroundColor=none;rounded=0;html=1;whiteSpace=wrap;" parent="1" vertex="1">
            <mxGeometry x="484" y="220" width="14" height="60" as="geometry" />
          </mxCell>
        </UserObject>
        <UserObject label="" tags="Background" id="153">
          <mxCell style="vsdxID=222;fillColor=#e1d5e7;shape=stencil(nZBLDoAgDERP0z3SIyjew0SURgSD+Lu9kMZoXLhwN9O+tukAlrNpJg1SzDH4QW/URgNYgZTkjA4UkwJUgGXng+6DX1zLfmoymdXo17xh5zmRJ6Q42BWCfc2oJfdAr+Yv+AP9Cb7OJ3H/2JG1HNGz/84klThPVCc=);strokeColor=#9673a6;points=[[1,0.5,0],[0.5,0,0],[0.5,0.5,0],[0.5,0.5,0]];labelBackgroundColor=none;rounded=0;html=1;whiteSpace=wrap;" parent="1" vertex="1">
            <mxGeometry x="499" y="220" width="14" height="60" as="geometry" />
          </mxCell>
        </UserObject>
        <UserObject label="" tags="Background" id="154">
          <mxCell style="vsdxID=223;fillColor=#e1d5e7;shape=stencil(nZBLDoAgDERP0z3SIyjew0SURgSD+Lu9kMZoXLhwN9O+tukAlrNpJg1SzDH4QW/URgNYgZTkjA4UkwJUgGXng+6DX1zLfmoymdXo17xh5zmRJ6Q42BWCfc2oJfdAr+Yv+AP9Cb7OJ3H/2JG1HNGz/84klThPVCc=);strokeColor=#9673a6;points=[[1,0.5,0],[0.5,0,0],[0.5,0.5,0],[0.5,0.5,0]];labelBackgroundColor=none;rounded=0;html=1;whiteSpace=wrap;" parent="1" vertex="1">
            <mxGeometry x="513" y="220" width="14" height="60" as="geometry" />
          </mxCell>
        </UserObject>
        <UserObject label="" tags="Background" id="155">
          <mxCell style="vsdxID=224;fillColor=#e1d5e7;shape=stencil(nZBLDoAgDERP0z3SIyjew0SURgSD+Lu9kMZoXLhwN9O+tukAlrNpJg1SzDH4QW/URgNYgZTkjA4UkwJUgGXng+6DX1zLfmoymdXo17xh5zmRJ6Q42BWCfc2oJfdAr+Yv+AP9Cb7OJ3H/2JG1HNGz/84klThPVCc=);strokeColor=#9673a6;points=[[1,0.5,0],[0.5,0,0],[0.5,0.5,0],[0.5,0.5,0]];labelBackgroundColor=none;rounded=0;html=1;whiteSpace=wrap;" parent="1" vertex="1">
            <mxGeometry x="528" y="220" width="14" height="60" as="geometry" />
          </mxCell>
        </UserObject>
        <UserObject label="" tags="Background" id="156">
          <mxCell style="vsdxID=225;fillColor=#ffffff;gradientColor=none;shape=stencil(nZBLDoAgDERP0z3SIyjew0SURgSD+Lu9kMZoXLhwN9O+tukAlrNpJg1SzDH4QW/URgNYgZTkjA4UkwJUgGXng+6DX1zLfmoymdXo17xh5zmRJ6Q42BWCfc2oJfdAr+Yv+AP9Cb7OJ3H/2JG1HNGz/84klThPVCc=);strokeColor=#000000;points=[[1,0.5,0],[0.5,0,0],[0.5,0.5,0],[0.5,0.5,0]];labelBackgroundColor=none;rounded=0;html=1;whiteSpace=wrap;" parent="1" vertex="1">
            <mxGeometry x="543" y="220" width="14" height="60" as="geometry" />
          </mxCell>
        </UserObject>
        <UserObject label="" tags="Background" id="157">
          <mxCell style="vsdxID=226;fillColor=#e1d5e7;shape=stencil(nZBLDoAgDERP0z3SIyjew0SURgSD+Lu9kMZoXLhwN9O+tukAlrNpJg1SzDH4QW/URgNYgZTkjA4UkwJUgGXng+6DX1zLfmoymdXo17xh5zmRJ6Q42BWCfc2oJfdAr+Yv+AP9Cb7OJ3H/2JG1HNGz/84klThPVCc=);strokeColor=#9673a6;points=[[1,0.5,0],[0.5,0,0],[0.5,0.5,0],[0.5,0.5,0]];labelBackgroundColor=none;rounded=0;html=1;whiteSpace=wrap;" parent="1" vertex="1">
            <mxGeometry x="557" y="220" width="14" height="60" as="geometry" />
          </mxCell>
        </UserObject>
        <UserObject label="" tags="Background" id="158">
          <mxCell style="vsdxID=227;fillColor=#ffffff;gradientColor=none;shape=stencil(nZBLDoAgDERP0z3SIyjew0SURgSD+Lu9kMZoXLhwN9O+tukAlrNpJg1SzDH4QW/URgNYgZTkjA4UkwJUgGXng+6DX1zLfmoymdXo17xh5zmRJ6Q42BWCfc2oJfdAr+Yv+AP9Cb7OJ3H/2JG1HNGz/84klThPVCc=);strokeColor=#000000;points=[[1,0.5,0],[0.5,0,0],[0.5,0.5,0],[0.5,0.5,0]];labelBackgroundColor=none;rounded=0;html=1;whiteSpace=wrap;" parent="1" vertex="1">
            <mxGeometry x="572" y="220" width="14" height="60" as="geometry" />
          </mxCell>
        </UserObject>
        <UserObject label="" tags="Background" id="159">
          <mxCell style="vsdxID=228;fillColor=#ffffff;gradientColor=none;shape=stencil(nZBLDoAgDERP0z3SIyjew0SURgSD+Lu9kMZoXLhwN9O+tukAlrNpJg1SzDH4QW/URgNYgZTkjA4UkwJUgGXng+6DX1zLfmoymdXo17xh5zmRJ6Q42BWCfc2oJfdAr+Yv+AP9Cb7OJ3H/2JG1HNGz/84klThPVCc=);strokeColor=#000000;points=[[1,0.5,0],[0.5,0,0],[0.5,0.5,0],[0.5,0.5,0]];labelBackgroundColor=none;rounded=0;html=1;whiteSpace=wrap;" parent="1" vertex="1">
            <mxGeometry x="587" y="220" width="14" height="60" as="geometry" />
          </mxCell>
        </UserObject>
        <UserObject label="" tags="Background" id="160">
          <mxCell style="vsdxID=229;fillColor=#ffffff;gradientColor=none;shape=stencil(nZBLDoAgDERP0z3SIyjew0SURgSD+Lu9kMZoXLhwN9O+tukAlrNpJg1SzDH4QW/URgNYgZTkjA4UkwJUgGXng+6DX1zLfmoymdXo17xh5zmRJ6Q42BWCfc2oJfdAr+Yv+AP9Cb7OJ3H/2JG1HNGz/84klThPVCc=);strokeColor=#000000;points=[[1,0.5,0],[0.5,0,0],[0.5,0.5,0],[0.5,0.5,0]];labelBackgroundColor=none;rounded=0;html=1;whiteSpace=wrap;" parent="1" vertex="1">
            <mxGeometry x="601" y="220" width="14" height="60" as="geometry" />
          </mxCell>
        </UserObject>
        <UserObject label="" tags="Background" id="161">
          <mxCell style="vsdxID=230;fillColor=#ffffff;gradientColor=none;shape=stencil(nZBLDoAgDERP0z3SIyjew0SURgSD+Lu9kMZoXLhwN9O+tukAlrNpJg1SzDH4QW/URgNYgZTkjA4UkwJUgGXng+6DX1zLfmoymdXo17xh5zmRJ6Q42BWCfc2oJfdAr+Yv+AP9Cb7OJ3H/2JG1HNGz/84klThPVCc=);strokeColor=#000000;points=[[1,0.5,0],[0.5,0,0],[0.5,0.5,0],[0.5,0.5,0]];labelBackgroundColor=none;rounded=0;html=1;whiteSpace=wrap;" parent="1" vertex="1">
            <mxGeometry x="616" y="220" width="14" height="60" as="geometry" />
          </mxCell>
        </UserObject>
        <UserObject label="" tags="Background" id="162">
          <mxCell style="vsdxID=231;fillColor=#ffffff;gradientColor=none;shape=stencil(nZBLDoAgDERP0z3SIyjew0SURgSD+Lu9kMZoXLhwN9O+tukAlrNpJg1SzDH4QW/URgNYgZTkjA4UkwJUgGXng+6DX1zLfmoymdXo17xh5zmRJ6Q42BWCfc2oJfdAr+Yv+AP9Cb7OJ3H/2JG1HNGz/84klThPVCc=);strokeColor=#000000;points=[[1,0.5,0],[0.5,0,0],[0.5,0.5,0],[0.5,0.5,0]];labelBackgroundColor=none;rounded=0;html=1;whiteSpace=wrap;" parent="1" vertex="1">
            <mxGeometry x="630" y="220" width="14" height="60" as="geometry" />
          </mxCell>
        </UserObject>
        <UserObject label="" tags="Background" id="163">
          <mxCell style="vsdxID=232;fillColor=#e1d5e7;shape=stencil(nZBLDoAgDERP0z3SIyjew0SURgSD+Lu9kMZoXLhwN9O+tukAlrNpJg1SzDH4QW/URgNYgZTkjA4UkwJUgGXng+6DX1zLfmoymdXo17xh5zmRJ6Q42BWCfc2oJfdAr+Yv+AP9Cb7OJ3H/2JG1HNGz/84klThPVCc=);strokeColor=#9673a6;points=[[1,0.5,0],[0.5,0,0],[0.5,0.5,0],[0.5,0.5,0]];labelBackgroundColor=none;rounded=0;html=1;whiteSpace=wrap;" parent="1" vertex="1">
            <mxGeometry x="645" y="220" width="14" height="60" as="geometry" />
          </mxCell>
        </UserObject>
        <UserObject label="" tags="Background" id="164">
          <mxCell style="vsdxID=233;fillColor=#e1d5e7;shape=stencil(nZBLDoAgDERP0z3SIyjew0SURgSD+Lu9kMZoXLhwN9O+tukAlrNpJg1SzDH4QW/URgNYgZTkjA4UkwJUgGXng+6DX1zLfmoymdXo17xh5zmRJ6Q42BWCfc2oJfdAr+Yv+AP9Cb7OJ3H/2JG1HNGz/84klThPVCc=);strokeColor=#9673a6;points=[[1,0.5,0],[0.5,0,0],[0.5,0.5,0],[0.5,0.5,0]];labelBackgroundColor=none;rounded=0;html=1;whiteSpace=wrap;" parent="1" vertex="1">
            <mxGeometry x="660" y="220" width="14" height="60" as="geometry" />
          </mxCell>
        </UserObject>
        <UserObject label="" tags="Background" id="165">
          <mxCell style="vsdxID=234;fillColor=#e1d5e7;shape=stencil(nZBLDoAgDERP0z3SIyjew0SURgSD+Lu9kMZoXLhwN9O+tukAlrNpJg1SzDH4QW/URgNYgZTkjA4UkwJUgGXng+6DX1zLfmoymdXo17xh5zmRJ6Q42BWCfc2oJfdAr+Yv+AP9Cb7OJ3H/2JG1HNGz/84klThPVCc=);strokeColor=#9673a6;points=[[1,0.5,0],[0.5,0,0],[0.5,0.5,0],[0.5,0.5,0]];labelBackgroundColor=none;rounded=0;html=1;whiteSpace=wrap;" parent="1" vertex="1">
            <mxGeometry x="674" y="220" width="14" height="60" as="geometry" />
          </mxCell>
        </UserObject>
        <UserObject label="" tags="Background" id="166">
          <mxCell style="vsdxID=235;fillColor=#e1d5e7;shape=stencil(nZBLDoAgDERP0z3SIyjew0SURgSD+Lu9kMZoXLhwN9O+tukAlrNpJg1SzDH4QW/URgNYgZTkjA4UkwJUgGXng+6DX1zLfmoymdXo17xh5zmRJ6Q42BWCfc2oJfdAr+Yv+AP9Cb7OJ3H/2JG1HNGz/84klThPVCc=);strokeColor=#9673a6;points=[[1,0.5,0],[0.5,0,0],[0.5,0.5,0],[0.5,0.5,0]];labelBackgroundColor=none;rounded=0;html=1;whiteSpace=wrap;" parent="1" vertex="1">
            <mxGeometry x="689" y="220" width="14" height="60" as="geometry" />
          </mxCell>
        </UserObject>
        <UserObject label="" tags="Background" id="167">
          <mxCell style="vsdxID=236;fillColor=#e1d5e7;shape=stencil(nZBLDoAgDERP0z3SIyjew0SURgSD+Lu9kMZoXLhwN9O+tukAlrNpJg1SzDH4QW/URgNYgZTkjA4UkwJUgGXng+6DX1zLfmoymdXo17xh5zmRJ6Q42BWCfc2oJfdAr+Yv+AP9Cb7OJ3H/2JG1HNGz/84klThPVCc=);strokeColor=#9673a6;points=[[1,0.5,0],[0.5,0,0],[0.5,0.5,0],[0.5,0.5,0]];labelBackgroundColor=none;rounded=0;html=1;whiteSpace=wrap;" parent="1" vertex="1">
            <mxGeometry x="704" y="220" width="14" height="60" as="geometry" />
          </mxCell>
        </UserObject>
        <UserObject label="" tags="Background" id="168">
          <mxCell style="vsdxID=237;fillColor=#e1d5e7;shape=stencil(nZBLDoAgDERP0z3SIyjew0SURgSD+Lu9kMZoXLhwN9O+tukAlrNpJg1SzDH4QW/URgNYgZTkjA4UkwJUgGXng+6DX1zLfmoymdXo17xh5zmRJ6Q42BWCfc2oJfdAr+Yv+AP9Cb7OJ3H/2JG1HNGz/84klThPVCc=);strokeColor=#9673a6;points=[[1,0.5,0],[0.5,0,0],[0.5,0.5,0],[0.5,0.5,0]];labelBackgroundColor=none;rounded=0;html=1;whiteSpace=wrap;" parent="1" vertex="1">
            <mxGeometry x="718" y="220" width="14" height="60" as="geometry" />
          </mxCell>
        </UserObject>
        <UserObject label="" tags="Background" id="169">
          <mxCell style="vsdxID=238;fillColor=#ffffff;gradientColor=none;shape=stencil(nZBLDoAgDERP0z3SIyjew0SURgSD+Lu9kMZoXLhwN9O+tukAlrNpJg1SzDH4QW/URgNYgZTkjA4UkwJUgGXng+6DX1zLfmoymdXo17xh5zmRJ6Q42BWCfc2oJfdAr+Yv+AP9Cb7OJ3H/2JG1HNGz/84klThPVCc=);strokeColor=#000000;points=[[1,0.5,0],[0.5,0,0],[0.5,0.5,0],[0.5,0.5,0]];labelBackgroundColor=none;rounded=0;html=1;whiteSpace=wrap;" parent="1" vertex="1">
            <mxGeometry x="733" y="220" width="14" height="60" as="geometry" />
          </mxCell>
        </UserObject>
        <UserObject label="" tags="Background" id="170">
          <mxCell style="vsdxID=239;fillColor=#e1d5e7;shape=stencil(nZBLDoAgDERP0z3SIyjew0SURgSD+Lu9kMZoXLhwN9O+tukAlrNpJg1SzDH4QW/URgNYgZTkjA4UkwJUgGXng+6DX1zLfmoymdXo17xh5zmRJ6Q42BWCfc2oJfdAr+Yv+AP9Cb7OJ3H/2JG1HNGz/84klThPVCc=);strokeColor=#9673a6;points=[[1,0.5,0],[0.5,0,0],[0.5,0.5,0],[0.5,0.5,0]];labelBackgroundColor=none;rounded=0;html=1;whiteSpace=wrap;" parent="1" vertex="1">
            <mxGeometry x="747" y="220" width="14" height="60" as="geometry" />
          </mxCell>
        </UserObject>
        <UserObject label="" tags="Background" id="171">
          <mxCell style="vsdxID=240;fillColor=#e1d5e7;shape=stencil(nZBLDoAgDERP0z3SIyjew0SURgSD+Lu9kMZoXLhwN9O+tukAlrNpJg1SzDH4QW/URgNYgZTkjA4UkwJUgGXng+6DX1zLfmoymdXo17xh5zmRJ6Q42BWCfc2oJfdAr+Yv+AP9Cb7OJ3H/2JG1HNGz/84klThPVCc=);strokeColor=#9673a6;points=[[1,0.5,0],[0.5,0,0],[0.5,0.5,0],[0.5,0.5,0]];labelBackgroundColor=none;rounded=0;html=1;whiteSpace=wrap;" parent="1" vertex="1">
            <mxGeometry x="762" y="220" width="14" height="60" as="geometry" />
          </mxCell>
        </UserObject>
        <UserObject label="" tags="Background" id="172">
          <mxCell style="vsdxID=241;fillColor=#e1d5e7;shape=stencil(nZBLDoAgDERP0z3SIyjew0SURgSD+Lu9kMZoXLhwN9O+tukAlrNpJg1SzDH4QW/URgNYgZTkjA4UkwJUgGXng+6DX1zLfmoymdXo17xh5zmRJ6Q42BWCfc2oJfdAr+Yv+AP9Cb7OJ3H/2JG1HNGz/84klThPVCc=);strokeColor=#9673a6;points=[[1,0.5,0],[0.5,0,0],[0.5,0.5,0],[0.5,0.5,0]];labelBackgroundColor=none;rounded=0;html=1;whiteSpace=wrap;" parent="1" vertex="1">
            <mxGeometry x="777" y="220" width="14" height="60" as="geometry" />
          </mxCell>
        </UserObject>
        <UserObject label="" tags="Background" id="173">
          <mxCell style="vsdxID=242;fillColor=#e1d5e7;shape=stencil(nZBLDoAgDERP0z3SIyjew0SURgSD+Lu9kMZoXLhwN9O+tukAlrNpJg1SzDH4QW/URgNYgZTkjA4UkwJUgGXng+6DX1zLfmoymdXo17xh5zmRJ6Q42BWCfc2oJfdAr+Yv+AP9Cb7OJ3H/2JG1HNGz/84klThPVCc=);strokeColor=#9673a6;points=[[1,0.5,0],[0.5,0,0],[0.5,0.5,0],[0.5,0.5,0]];labelBackgroundColor=none;rounded=0;html=1;whiteSpace=wrap;" parent="1" vertex="1">
            <mxGeometry x="791" y="220" width="14" height="60" as="geometry" />
          </mxCell>
        </UserObject>
        <UserObject label="" tags="Background" id="174">
          <mxCell style="vsdxID=243;fillColor=#e1d5e7;shape=stencil(nZBLDoAgDERP0z3SIyjew0SURgSD+Lu9kMZoXLhwN9O+tukAlrNpJg1SzDH4QW/URgNYgZTkjA4UkwJUgGXng+6DX1zLfmoymdXo17xh5zmRJ6Q42BWCfc2oJfdAr+Yv+AP9Cb7OJ3H/2JG1HNGz/84klThPVCc=);strokeColor=#9673a6;points=[[1,0.5,0],[0.5,0,0],[0.5,0.5,0],[0.5,0.5,0]];labelBackgroundColor=none;rounded=0;html=1;whiteSpace=wrap;" parent="1" vertex="1">
            <mxGeometry x="806" y="220" width="14" height="60" as="geometry" />
          </mxCell>
        </UserObject>
        <UserObject label="" tags="Background" id="175">
          <mxCell style="vsdxID=244;fillColor=#e1d5e7;shape=stencil(nZBLDoAgDERP0z3SIyjew0SURgSD+Lu9kMZoXLhwN9O+tukAlrNpJg1SzDH4QW/URgNYgZTkjA4UkwJUgGXng+6DX1zLfmoymdXo17xh5zmRJ6Q42BWCfc2oJfdAr+Yv+AP9Cb7OJ3H/2JG1HNGz/84klThPVCc=);strokeColor=#9673a6;points=[[1,0.5,0],[0.5,0,0],[0.5,0.5,0],[0.5,0.5,0]];labelBackgroundColor=none;rounded=0;html=1;whiteSpace=wrap;" parent="1" vertex="1">
            <mxGeometry x="821" y="220" width="14" height="60" as="geometry" />
          </mxCell>
        </UserObject>
        <UserObject label="" tags="Background" id="176">
          <mxCell style="vsdxID=245;fillColor=#e1d5e7;shape=stencil(nZBLDoAgDERP0z3SIyjew0SURgSD+Lu9kMZoXLhwN9O+tukAlrNpJg1SzDH4QW/URgNYgZTkjA4UkwJUgGXng+6DX1zLfmoymdXo17xh5zmRJ6Q42BWCfc2oJfdAr+Yv+AP9Cb7OJ3H/2JG1HNGz/84klThPVCc=);strokeColor=#9673a6;points=[[1,0.5,0],[0.5,0,0],[0.5,0.5,0],[0.5,0.5,0]];labelBackgroundColor=none;rounded=0;html=1;whiteSpace=wrap;" parent="1" vertex="1">
            <mxGeometry x="835" y="220" width="14" height="60" as="geometry" />
          </mxCell>
        </UserObject>
        <UserObject label="" tags="Background" id="177">
          <mxCell style="vsdxID=246;fillColor=#ffffff;gradientColor=none;shape=stencil(nZBLDoAgDERP0z3SIyjew0SURgSD+Lu9kMZoXLhwN9O+tukAlrNpJg1SzDH4QW/URgNYgZTkjA4UkwJUgGXng+6DX1zLfmoymdXo17xh5zmRJ6Q42BWCfc2oJfdAr+Yv+AP9Cb7OJ3H/2JG1HNGz/84klThPVCc=);strokeColor=#000000;points=[[1,0.5,0],[0.5,0,0],[0.5,0.5,0],[0.5,0.5,0]];labelBackgroundColor=none;rounded=0;html=1;whiteSpace=wrap;" parent="1" vertex="1">
            <mxGeometry x="850" y="220" width="14" height="60" as="geometry" />
          </mxCell>
        </UserObject>
        <UserObject label="" tags="Background" id="178">
          <mxCell style="vsdxID=247;fillColor=#ffffff;gradientColor=none;shape=stencil(nZBLDoAgDERP0z3SIyjew0SURgSD+Lu9kMZoXLhwN9O+tukAlrNpJg1SzDH4QW/URgNYgZTkjA4UkwJUgGXng+6DX1zLfmoymdXo17xh5zmRJ6Q42BWCfc2oJfdAr+Yv+AP9Cb7OJ3H/2JG1HNGz/84klThPVCc=);strokeColor=#000000;points=[[1,0.5,0],[0.5,0,0],[0.5,0.5,0],[0.5,0.5,0]];labelBackgroundColor=none;rounded=0;html=1;whiteSpace=wrap;" parent="1" vertex="1">
            <mxGeometry x="864" y="220" width="14" height="60" as="geometry" />
          </mxCell>
        </UserObject>
        <UserObject label="" tags="Background" id="179">
          <mxCell style="vsdxID=248;fillColor=#e1d5e7;shape=stencil(nZBLDoAgDERP0z3SIyjew0SURgSD+Lu9kMZoXLhwN9O+tukAlrNpJg1SzDH4QW/URgNYgZTkjA4UkwJUgGXng+6DX1zLfmoymdXo17xh5zmRJ6Q42BWCfc2oJfdAr+Yv+AP9Cb7OJ3H/2JG1HNGz/84klThPVCc=);strokeColor=#9673a6;points=[[1,0.5,0],[0.5,0,0],[0.5,0.5,0],[0.5,0.5,0]];labelBackgroundColor=none;rounded=0;html=1;whiteSpace=wrap;" parent="1" vertex="1">
            <mxGeometry x="879" y="220" width="14" height="60" as="geometry" />
          </mxCell>
        </UserObject>
        <UserObject label="" tags="Background" id="180">
          <mxCell style="vsdxID=249;fillColor=#e1d5e7;shape=stencil(nZBLDoAgDERP0z3SIyjew0SURgSD+Lu9kMZoXLhwN9O+tukAlrNpJg1SzDH4QW/URgNYgZTkjA4UkwJUgGXng+6DX1zLfmoymdXo17xh5zmRJ6Q42BWCfc2oJfdAr+Yv+AP9Cb7OJ3H/2JG1HNGz/84klThPVCc=);strokeColor=#9673a6;points=[[1,0.5,0],[0.5,0,0],[0.5,0.5,0],[0.5,0.5,0]];labelBackgroundColor=none;rounded=0;html=1;whiteSpace=wrap;" parent="1" vertex="1">
            <mxGeometry x="894" y="220" width="14" height="60" as="geometry" />
          </mxCell>
        </UserObject>
        <UserObject label="" tags="Background" id="181">
          <mxCell style="vsdxID=250;fillColor=#e1d5e7;shape=stencil(nZBLDoAgDERP0z3SIyjew0SURgSD+Lu9kMZoXLhwN9O+tukAlrNpJg1SzDH4QW/URgNYgZTkjA4UkwJUgGXng+6DX1zLfmoymdXo17xh5zmRJ6Q42BWCfc2oJfdAr+Yv+AP9Cb7OJ3H/2JG1HNGz/84klThPVCc=);strokeColor=#9673a6;points=[[1,0.5,0],[0.5,0,0],[0.5,0.5,0],[0.5,0.5,0]];labelBackgroundColor=none;rounded=0;html=1;whiteSpace=wrap;" parent="1" vertex="1">
            <mxGeometry x="908" y="220" width="14" height="60" as="geometry" />
          </mxCell>
        </UserObject>
        <UserObject label="" tags="Background" id="182">
          <mxCell style="vsdxID=251;fillColor=#e1d5e7;shape=stencil(nZBLDoAgDERP0z3SIyjew0SURgSD+Lu9kMZoXLhwN9O+tukAlrNpJg1SzDH4QW/URgNYgZTkjA4UkwJUgGXng+6DX1zLfmoymdXo17xh5zmRJ6Q42BWCfc2oJfdAr+Yv+AP9Cb7OJ3H/2JG1HNGz/84klThPVCc=);strokeColor=#9673a6;points=[[1,0.5,0],[0.5,0,0],[0.5,0.5,0],[0.5,0.5,0]];labelBackgroundColor=none;rounded=0;html=1;whiteSpace=wrap;" parent="1" vertex="1">
            <mxGeometry x="923" y="220" width="14" height="60" as="geometry" />
          </mxCell>
        </UserObject>
        <UserObject label="" tags="Background" id="183">
          <mxCell style="vsdxID=252;fillColor=#ffffff;gradientColor=none;shape=stencil(nZBLDoAgDERP0z3SIyjew0SURgSD+Lu9kMZoXLhwN9O+tukAlrNpJg1SzDH4QW/URgNYgZTkjA4UkwJUgGXng+6DX1zLfmoymdXo17xh5zmRJ6Q42BWCfc2oJfdAr+Yv+AP9Cb7OJ3H/2JG1HNGz/84klThPVCc=);strokeColor=#000000;points=[[1,0.5,0],[0.5,0,0],[0.5,0.5,0],[0.5,0.5,0]];labelBackgroundColor=none;rounded=0;html=1;whiteSpace=wrap;" parent="1" vertex="1">
            <mxGeometry x="938" y="220" width="14" height="60" as="geometry" />
          </mxCell>
        </UserObject>
        <UserObject label="" tags="Background" id="184">
          <mxCell style="vsdxID=253;fillColor=#e1d5e7;shape=stencil(nZBLDoAgDERP0z3SIyjew0SURgSD+Lu9kMZoXLhwN9O+tukAlrNpJg1SzDH4QW/URgNYgZTkjA4UkwJUgGXng+6DX1zLfmoymdXo17xh5zmRJ6Q42BWCfc2oJfdAr+Yv+AP9Cb7OJ3H/2JG1HNGz/84klThPVCc=);strokeColor=#9673a6;points=[[1,0.5,0],[0.5,0,0],[0.5,0.5,0],[0.5,0.5,0]];labelBackgroundColor=none;rounded=0;html=1;whiteSpace=wrap;" parent="1" vertex="1">
            <mxGeometry x="952" y="220" width="14" height="60" as="geometry" />
          </mxCell>
        </UserObject>
        <UserObject label="" tags="Background" id="185">
          <mxCell style="vsdxID=254;fillColor=#e1d5e7;shape=stencil(nZBLDoAgDERP0z3SIyjew0SURgSD+Lu9kMZoXLhwN9O+tukAlrNpJg1SzDH4QW/URgNYgZTkjA4UkwJUgGXng+6DX1zLfmoymdXo17xh5zmRJ6Q42BWCfc2oJfdAr+Yv+AP9Cb7OJ3H/2JG1HNGz/84klThPVCc=);strokeColor=#9673a6;points=[[1,0.5,0],[0.5,0,0],[0.5,0.5,0],[0.5,0.5,0]];labelBackgroundColor=none;rounded=0;html=1;whiteSpace=wrap;" parent="1" vertex="1">
            <mxGeometry x="967" y="220" width="14" height="60" as="geometry" />
          </mxCell>
        </UserObject>
        <UserObject label="" tags="Background" id="186">
          <mxCell style="vsdxID=255;fillColor=#ffffff;gradientColor=none;shape=stencil(nZBLDoAgDERP0z3SIyjew0SURgSD+Lu9kMZoXLhwN9O+tukAlrNpJg1SzDH4QW/URgNYgZTkjA4UkwJUgGXng+6DX1zLfmoymdXo17xh5zmRJ6Q42BWCfc2oJfdAr+Yv+AP9Cb7OJ3H/2JG1HNGz/84klThPVCc=);strokeColor=#000000;points=[[1,0.5,0],[0.5,0,0],[0.5,0.5,0],[0.5,0.5,0]];labelBackgroundColor=none;rounded=0;html=1;whiteSpace=wrap;" parent="1" vertex="1">
            <mxGeometry x="981" y="220" width="14" height="60" as="geometry" />
          </mxCell>
        </UserObject>
        <UserObject label="" tags="Background" id="187">
          <mxCell style="vsdxID=256;fillColor=#ffffff;gradientColor=none;shape=stencil(nZBLDoAgDERP0z3SIyjew0SURgSD+Lu9kMZoXLhwN9O+tukAlrNpJg1SzDH4QW/URgNYgZTkjA4UkwJUgGXng+6DX1zLfmoymdXo17xh5zmRJ6Q42BWCfc2oJfdAr+Yv+AP9Cb7OJ3H/2JG1HNGz/84klThPVCc=);strokeColor=#000000;points=[[1,0.5,0],[0.5,0,0],[0.5,0.5,0],[0.5,0.5,0]];labelBackgroundColor=none;rounded=0;html=1;whiteSpace=wrap;" parent="1" vertex="1">
            <mxGeometry x="996" y="220" width="14" height="60" as="geometry" />
          </mxCell>
        </UserObject>
        <UserObject label="" tags="Background" id="188">
          <mxCell style="vsdxID=257;fillColor=#ffffff;gradientColor=none;shape=stencil(nZBLDoAgDERP0z3SIyjew0SURgSD+Lu9kMZoXLhwN9O+tukAlrNpJg1SzDH4QW/URgNYgZTkjA4UkwJUgGXng+6DX1zLfmoymdXo17xh5zmRJ6Q42BWCfc2oJfdAr+Yv+AP9Cb7OJ3H/2JG1HNGz/84klThPVCc=);strokeColor=#000000;points=[[1,0.5,0],[0.5,0,0],[0.5,0.5,0],[0.5,0.5,0]];labelBackgroundColor=none;rounded=0;html=1;whiteSpace=wrap;" parent="1" vertex="1">
            <mxGeometry x="1011" y="220" width="14" height="60" as="geometry" />
          </mxCell>
        </UserObject>
        <UserObject label="" tags="Background" id="189">
          <mxCell style="vsdxID=258;fillColor=#ffffff;gradientColor=none;shape=stencil(nZBLDoAgDERP0z3SIyjew0SURgSD+Lu9kMZoXLhwN9O+tukAlrNpJg1SzDH4QW/URgNYgZTkjA4UkwJUgGXng+6DX1zLfmoymdXo17xh5zmRJ6Q42BWCfc2oJfdAr+Yv+AP9Cb7OJ3H/2JG1HNGz/84klThPVCc=);strokeColor=#000000;points=[[1,0.5,0],[0.5,0,0],[0.5,0.5,0],[0.5,0.5,0]];labelBackgroundColor=none;rounded=0;html=1;whiteSpace=wrap;" parent="1" vertex="1">
            <mxGeometry x="1025" y="220" width="14" height="60" as="geometry" />
          </mxCell>
        </UserObject>
        <UserObject label="" tags="Background" id="190">
          <mxCell style="vsdxID=259;fillColor=#ffffff;gradientColor=none;shape=stencil(nZBLDoAgDERP0z3SIyjew0SURgSD+Lu9kMZoXLhwN9O+tukAlrNpJg1SzDH4QW/URgNYgZTkjA4UkwJUgGXng+6DX1zLfmoymdXo17xh5zmRJ6Q42BWCfc2oJfdAr+Yv+AP9Cb7OJ3H/2JG1HNGz/84klThPVCc=);strokeColor=#000000;points=[[1,0.5,0],[0.5,0,0],[0.5,0.5,0],[0.5,0.5,0]];labelBackgroundColor=none;rounded=0;html=1;whiteSpace=wrap;" parent="1" vertex="1">
            <mxGeometry x="1040" y="220" width="14" height="60" as="geometry" />
          </mxCell>
        </UserObject>
        <UserObject label="" tags="Background" id="191">
          <mxCell style="vsdxID=260;fillColor=#ffffff;gradientColor=none;shape=stencil(nZBLDoAgDERP0z3SIyjew0SURgSD+Lu9kMZoXLhwN9O+tukAlrNpJg1SzDH4QW/URgNYgZTkjA4UkwJUgGXng+6DX1zLfmoymdXo17xh5zmRJ6Q42BWCfc2oJfdAr+Yv+AP9Cb7OJ3H/2JG1HNGz/84klThPVCc=);strokeColor=#000000;points=[[1,0.5,0],[0.5,0,0],[0.5,0.5,0],[0.5,0.5,0]];labelBackgroundColor=none;rounded=0;html=1;whiteSpace=wrap;" parent="1" vertex="1">
            <mxGeometry x="1055" y="220" width="14" height="60" as="geometry" />
          </mxCell>
        </UserObject>
        <UserObject label="" tags="Background" id="192">
          <mxCell style="vsdxID=261;fillColor=#ffffff;gradientColor=none;shape=stencil(nZBLDoAgDERP0z3SIyjew0SURgSD+Lu9kMZoXLhwN9O+tukAlrNpJg1SzDH4QW/URgNYgZTkjA4UkwJUgGXng+6DX1zLfmoymdXo17xh5zmRJ6Q42BWCfc2oJfdAr+Yv+AP9Cb7OJ3H/2JG1HNGz/84klThPVCc=);strokeColor=#000000;points=[[1,0.5,0],[0.5,0,0],[0.5,0.5,0],[0.5,0.5,0]];labelBackgroundColor=none;rounded=0;html=1;whiteSpace=wrap;" parent="1" vertex="1">
            <mxGeometry x="1069" y="220" width="14" height="60" as="geometry" />
          </mxCell>
        </UserObject>
        <UserObject label="" tags="Background" id="193">
          <mxCell style="vsdxID=262;fillColor=#ffffff;gradientColor=none;shape=stencil(nZBLDoAgDERP0z3SIyjew0SURgSD+Lu9kMZoXLhwN9O+tukAlrNpJg1SzDH4QW/URgNYgZTkjA4UkwJUgGXng+6DX1zLfmoymdXo17xh5zmRJ6Q42BWCfc2oJfdAr+Yv+AP9Cb7OJ3H/2JG1HNGz/84klThPVCc=);strokeColor=#000000;points=[[1,0.5,0],[0.5,0,0],[0.5,0.5,0],[0.5,0.5,0]];labelBackgroundColor=none;rounded=0;html=1;whiteSpace=wrap;" parent="1" vertex="1">
            <mxGeometry x="1084" y="220" width="14" height="60" as="geometry" />
          </mxCell>
        </UserObject>
        <UserObject label="" tags="Background" id="194">
          <mxCell style="vsdxID=263;fillColor=#dae8fc;shape=stencil(vVHLDsIgEPwajiQU4hfU+h8bu7RELM2CFv9eyMZYjCcP3mZ2Zh/ZEaaPM6wotIqJwgU3N6ZZmKPQ2i0zkksFCTMI09tAOFG4LSPzFaqzomu41wmZ+1Tt0OrB7MD0xE6gc5EoN5qi1vsa1Kmvo1SWkF2UFBIkF5ZmqweaUJY10nqYGiluiOuu3P182P/OKuD9Zuu855T2+mcspcSRmuEJ);strokeColor=#6c8ebf;points=[[0.5,0,0],[0.5,0.5,0],[0.5,0.5,0],[0.5,0.5,0],[1,0.5,0],[0.15,0.85,0],[0.85,0.85,0],[0.85,0.15,0],[0.15,0.15,0]];labelBackgroundColor=none;rounded=0;html=1;whiteSpace=wrap;" parent="1" vertex="1">
            <mxGeometry x="102" y="30" width="40" height="40" as="geometry" />
          </mxCell>
        </UserObject>
        <mxCell id="195" value="&lt;div style=&quot;font-size: 1px&quot;&gt;&lt;font style=&quot;font-size:14.11px;font-family:Calibri;color:#000000;direction:ltr;letter-spacing:0px;line-height:120%;opacity:1&quot;&gt;1&lt;br/&gt;&lt;/font&gt;&lt;/div&gt;" style="text;vsdxID=263;fillColor=none;gradientColor=none;strokeColor=none;points=[[0.5,0,0],[0.5,0.5,0],[0.5,0.5,0],[0.5,0.5,0],[1,0.5,0],[0.15,0.85,0],[0.85,0.85,0],[0.85,0.15,0],[0.15,0.15,0]];labelBackgroundColor=none;rounded=0;html=1;whiteSpace=wrap;verticalAlign=middle;align=center;overflow=width;;html=1;" parent="194" vertex="1">
          <mxGeometry x="2.5" y="5" width="35" height="30" as="geometry" />
        </mxCell>
        <UserObject label="" tags="Background" id="196">
          <mxCell style="vsdxID=264;fillColor=#dae8fc;shape=stencil(vVHLDsIgEPwajiQU4hfU+h8bu7RELM2CFv9eyMZYjCcP3mZ2Zh/ZEaaPM6wotIqJwgU3N6ZZmKPQ2i0zkksFCTMI09tAOFG4LSPzFaqzomu41wmZ+1Tt0OrB7MD0xE6gc5EoN5qi1vsa1Kmvo1SWkF2UFBIkF5ZmqweaUJY10nqYGiluiOuu3P182P/OKuD9Zuu855T2+mcspcSRmuEJ);strokeColor=#6c8ebf;points=[[0.5,0,0],[0.5,0.5,0],[0.5,0.5,0],[0.5,0.5,0],[1,0.5,0],[0.15,0.85,0],[0.85,0.85,0],[0.85,0.15,0],[0.15,0.15,0]];labelBackgroundColor=none;rounded=0;html=1;whiteSpace=wrap;" parent="1" vertex="1">
            <mxGeometry x="102" y="130" width="40" height="40" as="geometry" />
          </mxCell>
        </UserObject>
        <mxCell id="197" value="&lt;div style=&quot;font-size: 1px&quot;&gt;&lt;font style=&quot;font-size:14.11px;font-family:Calibri;color:#000000;direction:ltr;letter-spacing:0px;line-height:120%;opacity:1&quot;&gt;2&lt;br/&gt;&lt;/font&gt;&lt;/div&gt;" style="text;vsdxID=264;fillColor=none;gradientColor=none;strokeColor=none;points=[[0.5,0,0],[0.5,0.5,0],[0.5,0.5,0],[0.5,0.5,0],[1,0.5,0],[0.15,0.85,0],[0.85,0.85,0],[0.85,0.15,0],[0.15,0.15,0]];labelBackgroundColor=none;rounded=0;html=1;whiteSpace=wrap;verticalAlign=middle;align=center;overflow=width;;html=1;" parent="196" vertex="1">
          <mxGeometry x="2.5" y="5" width="35" height="30" as="geometry" />
        </mxCell>
        <UserObject label="" tags="Background" id="198">
          <mxCell style="vsdxID=265;fillColor=#dae8fc;shape=stencil(vVHLDsIgEPwajiQU4hfU+h8bu7RELM2CFv9eyMZYjCcP3mZ2Zh/ZEaaPM6wotIqJwgU3N6ZZmKPQ2i0zkksFCTMI09tAOFG4LSPzFaqzomu41wmZ+1Tt0OrB7MD0xE6gc5EoN5qi1vsa1Kmvo1SWkF2UFBIkF5ZmqweaUJY10nqYGiluiOuu3P182P/OKuD9Zuu855T2+mcspcSRmuEJ);strokeColor=#6c8ebf;points=[[0.5,0,0],[0.5,0.5,0],[0.5,0.5,0],[0.5,0.5,0],[1,0.5,0],[0.15,0.85,0],[0.85,0.85,0],[0.85,0.15,0],[0.15,0.15,0]];labelBackgroundColor=none;rounded=0;html=1;whiteSpace=wrap;" parent="1" vertex="1">
            <mxGeometry x="102" y="230" width="40" height="40" as="geometry" />
          </mxCell>
        </UserObject>
        <mxCell id="199" value="&lt;div style=&quot;font-size: 1px&quot;&gt;&lt;font style=&quot;font-size:14.11px;font-family:Calibri;color:#000000;direction:ltr;letter-spacing:0px;line-height:120%;opacity:1&quot;&gt;3&lt;br/&gt;&lt;/font&gt;&lt;/div&gt;" style="text;vsdxID=265;fillColor=none;gradientColor=none;strokeColor=none;points=[[0.5,0,0],[0.5,0.5,0],[0.5,0.5,0],[0.5,0.5,0],[1,0.5,0],[0.15,0.85,0],[0.85,0.85,0],[0.85,0.15,0],[0.15,0.15,0]];labelBackgroundColor=none;rounded=0;html=1;whiteSpace=wrap;verticalAlign=middle;align=center;overflow=width;;html=1;" parent="198" vertex="1">
          <mxGeometry x="2.5" y="5" width="35" height="30" as="geometry" />
        </mxCell>
      </root>
    </mxGraphModel>
  </diagram>
</mxfile>
